<svg version="1" xmlns="http://www.w3.org/2000/svg" width="2032" height="2032" viewBox="0 0 1524.000000 1524.000000"><path d="M388.7 42.3c-7.1 7.3-14.6 25.1-18.6 44.2-3 14.3-3.5 17.1-3.3 18.2.2.7-.4 4.2-1.3 7.8-.8 3.6-1.5 9.2-1.5 12.4 0 3.1-.4 8.2-1 11.2-1.3 7.3-2.1 47.2-.9 49 .7 1.1.9.9.9-.9 0-1.2.6-4.8 1.4-8 .8-3.1 2-8.4 2.6-11.7 2-10.6 6.2-28.9 7.6-33.3.8-2.3 1.4-5.2 1.4-6.2 0-2.7 1.8-2.5 3 .2.8 1.8.9 1.2.5-2.3s-.2-5.1 1-6.2c.8-.9 1.5-3.1 1.5-5 0-2 .5-3.7 1.1-3.9.6-.2 1.3-1.7 1.4-3.2.2-1.6.8-3.3 1.4-3.9.6-.6 1.1-1.8 1.1-2.7 0-1.5 2.6-7.5 6.8-15.9 3.8-7.6 6.7-6.4 9.7 4.4 1 3.3 2.1 6.9 2.5 8 1.5 3.9 4.9 13 6.2 17 .7 2.2 2.8 7 4.5 10.8 1.8 3.7 3.3 7.2 3.3 7.7 0 .6.4 1 .8 1 .5 0 1.6 1.7 2.5 3.7.9 2.1 2.2 4.7 2.9 5.8 10 15.5 14.4 22.2 15.3 23.1 3.8 4 12.1 13.9 13 15.4.5 1 3.5 5.6 6.6 10.2 3.1 4.5 5.8 8.7 6 9.3.2.5 4 6.3 8.4 12.8 8.3 12.2 13 19.9 14.1 22.9.4 1 1 1.8 1.5 1.8s.9.9.9 1.9c0 1.1.4 2.3 1 2.6 1.5.9 10.5 20.6 14 30.5 1.2 3.6 2.8 7.8 3.5 9.5.6 1.6 1.7 4.8 2.4 7s2.4 7 3.8 10.7c3.7 10 2.3 10.4-2.7.8-2.4-4.7-5.7-11-7.3-14-1.6-3-6.6-12.7-11-21.5-4.5-8.8-8.8-16-9.6-16-1.6 0-3.4 4.6-5.1 13-.7 3.3-1.9 8.5-2.6 11.5-4.6 19.4-5.9 52.2-2.4 63.1 1.2 3.5 2.5 6.8 3 7.3 2.3 2.3 1.1 3.5-2.4 2.5-5.6-1.5-30.2-15.1-36.1-19.8-3-2.4-6.6-4.3-7.2-3.7-1.3 1.3 8.8 11 15.2 14.6 16.4 9.3 26.4 13.4 37.3 15.4 3.1.5 3.3.4 2.7-1.7-.4-1.2-2.1-3.7-3.9-5.5-3.6-3.8-5.3-10.8-6.2-26.2-.5-8.8 1.5-30.6 4.7-51.5.5-3.3 1.2-7.7 1.5-9.8.6-3.8 2-4.4 3.5-1.6.5.8 5 9.9 10.2 20.4 5.2 10.4 10.8 21.4 12.6 24.3 1.7 2.9 3.1 5.5 3.1 5.7 0 .2 2.1 4.8 4.6 10.2 6.9 14.7 8.4 19.2 8.4 24.2 0 1.7.7 4.3 1.6 5.6.8 1.3 1.4 3.4 1.3 4.7-.2 2.1.8 6.8 3.1 14.1.9 3 .4 5.7-1.1 5.7-.5 0-.9-.4-.9-.8 0-1.2-3.9-5.2-5.2-5.2-.6 0-.8 1.1-.4 2.7.3 1.6.9 6 1.2 10 .6 6.7.4 7.6-3.1 15-4.9 10.5-8.3 12.5-20.9 12.4-8.6-.1-16-1.4-20.4-3.7-3.2-1.6-5.2-.8-5.2 2.2 0 3.4 2.1 7.6 5.3 10.2 1.5 1.3 2.7 2.8 2.7 3.3 0 1.2-13.7.3-20.7-1.3-5.5-1.3-6.6-2.4-3.5-3.5.9-.4 2.7-1.3 4-2.1 1.7-1.1 2-1.8 1.1-2.8-1.7-2.1-5.5-1.7-7 .7-1 1.5-3.5 2.4-8.8 3.4-4 .8-7.8 1.9-8.5 2.4-.6.5-3.6 1.3-6.6 1.7-3 .4-6.3 1.1-7.2 1.6-1.3.6-2.9 0-5.9-2.2-2.3-1.7-4.4-2.8-4.6-2.6-.8.8 2.6 6.9 6.7 12.4 2.2 2.9 4 5.8 4 6.5 0 .6.9 2.5 2 4.2 1.1 1.6 2 3.7 1.9 4.5 0 1.3-.1 1.3-.6 0-.6-1.6-3.3-3.9-4.5-4-1.5 0-1.3 5.7.3 8.5 1.5 2.5 1.6 3.7.7 7.7-.6 2.7-1.6 4.8-2.1 4.8-1.5 0-13.9-8-16.8-10.9-1.4-1.4-5.3-5-8.7-7.9-4.8-4.1-6.9-6.9-9.7-13-2.1-4.2-4.3-9-5.1-10.6-.8-1.6-1.4-3.5-1.4-4.3 0-.8-1.3-2.6-3-4-1.7-1.3-3-3-3-3.7 0-.7-.7-2.6-1.5-4.3-1.8-3.6-3.2-15.3-1.9-15.3.5 0 1.8 2.8 2.9 6.2 2.6 8.7 3.2 4.5.6-5-1.1-4.2-2.3-10.2-2.6-13.2-.4-3-.9-5.9-1.3-6.5-.7-1-1.2-4.9-3.1-21-.6-5-1.5-11.7-2-15-.5-3.3-1.5-13.9-2.2-23.7-1.1-16.6-.7-39.6 1.6-87.8.5-9.9-.8-16-3.3-16.1-1 0-1.2-.3-.4-.6 1.7-.7 1.5-4-.3-4.7-1.4-.5-1.5 1-.9 12.2.3 7.3.2 16.8-.5 22.2-3.4 30.4-1.8 87.2 3.4 118.5.9 5.5 1.8 11.3 1.9 13 .1 1.6.8 4 1.5 5.3.7 1.3 1.1 3.1.9 4-.2.9.2 2.1.9 2.7 1.9 1.6 2.8 6.5 1.1 6.5-.8 0-1.8-.4-2.4-1-1.2-1.2 0 14.8 1.6 21.5 3.9 15.3 10.8 31.5 13.5 31.5.8 0 1.5.9 1.5 1.9 0 1.1.5 2.3 1 2.6.6.3 1 1.3 1 2.1s2.9 6.6 6.5 12.9c3.6 6.3 6.5 11.9 6.5 12.5 0 .5.5 1 1 1 .6 0 1 .5 1 1 0 .6.8 2.3 1.8 3.8 8.1 11.9 10.2 15.1 10.2 15.6 0 .3 1.8 2.4 4 4.7 2.2 2.3 4 5.1 4 6.1 0 2.1-6 11.8-7.2 11.8-.5 0-.8.5-.8 1.2 0 .6-1 2.5-2.3 4.2-1.3 1.7-2.7 3.8-3.1 4.6-.4.8-1.7 3.1-2.9 5.1-1.2 2-3.7 6.3-5.6 9.5-1.9 3.3-3.8 6.1-4.2 6.4-.3.3-3.2 5.4-6.3 11.5-3.1 6-7 13.2-8.6 16-1.7 2.7-13.5 25.9-26.2 51.5-12.8 25.6-23.6 46.6-24 46.8-.5.2-.8.8-.8 1.4 0 .6-2.1 3.5-4.6 6.5-4.5 5.2-5.2 8.3-1.9 8.3.8 0 2.7-1 4.2-2.3 1.4-1.2 4.7-4 7.3-6.2 2.6-2.2 8.5-7.2 13.1-11 4.6-3.9 11.5-9.9 15.4-13.5 3.8-3.6 8.5-7.9 10.4-9.7 3-2.7 6.1-3.4 6.1-1.4 0 2.9-26.3 51.2-30.2 55.5-1 1.1-1.8 2.3-1.8 2.8 0 .9-3.6 5.7-15.9 21.4-2.2 2.9-6.9 7.1-10.5 9.4-3.6 2.4-6.6 4.6-6.6 5.1 0 2.1 5.7 2.5 11.2.9 5-1.6 19.5-8.6 20.8-10.1.3-.3 1.6-1.2 3-1.9s4.9-3.1 7.8-5.2c4.3-3.2 5.3-3.6 5.8-2.3.6 1.5-.2 2.8-4.8 8-1 1.1-4.3 5.4-7.3 9.5-3.1 4.1-9 11.2-13.1 15.7-4.1 4.6-9.2 10.5-11.2 13.1-3.7 4.9-10.3 11.2-11.7 11.2-.5 0-2.5 1.7-4.5 3.7-2.1 2.1-4.8 4.6-6.1 5.5-2.4 1.7-2.4 1.8-.5 3.3 1.4 1.1 3.4 1.4 7.1 1 5.2-.5 28.8-6.2 36.2-8.8 9.1-3.1 7.3 1.8-3.2 8.8-2.9 1.9-5.7 4.1-6.4 4.9-.8.9-1.8 1.6-2.3 1.6-.5 0-2.4 1.1-4.2 2.5-1.8 1.4-3.6 2.5-3.9 2.5-.4 0-1.5.7-2.4 1.6-5 4.4-12.7 8-22 10.4-2.4.6-4.3 1.5-4.3 2 0 1 9.3 2.4 16 2.4 4.8.1 23.2-3 26.5-4.4 1.1-.5 3.6-1.2 5.5-1.5 1.9-.3 4.6-1 6-1.5 1.4-.5 5.2-1.6 8.5-2.5 3.3-.9 6.8-2.1 7.7-2.6 1-.5 2.6-.9 3.5-.9 1 0 3.1-.7 4.7-1.5 1.5-.8 3.4-1.5 4.1-1.5 1.3 0 7.6-2.9 8.5-3.9.3-.3 1.6-.7 3-.9 1.4-.1 3.1-1 3.7-1.9 1.2-1.5 1.4-1.5 3.3.2 2.4 2.1 2.5 4.3.5 6.9-.8 1.1-1.5 2.9-1.5 4.1 0 1.2-.3 2.5-.7 2.9-1.1 1-3.4 11.9-4 18.6-.2 3-.9 5.9-1.4 6.4-.5.6-.9 2.9-.9 5.3 0 2.3-.4 6.2-1 8.5-1.9 8.5-2.7 16.7-1.6 17.1.8.3.7.9-.2 1.9-.7.9-1 2.7-.6 4.5.3 1.7.1 4-.6 5.3-2.3 4.3.3 3.4 4.9-1.8 6.9-7.8 8-5.3 4.1 9.8-.7 2.5-1.6 5.9-2.1 7.6-.5 1.7-.9 4.2-.9 5.7 0 1.4-.5 2.9-1 3.2-.6.3-1 1.7-1 2.9 0 1.3-.7 3.7-1.5 5.2-.8 1.6-1.5 3.7-1.5 4.6 0 .9-.5 2-1 2.3-.6.3-1 1.7-1 2.9 0 2.8-2.6 9.2-4 10.1-.6.4-1 1.7-.8 2.8.1 1.2-.1 2.8-.6 3.5-.6 1 0 .9 2.3-.2 1.7-.9 3.1-2.1 3.1-2.6 0-.6.6-1 1.3-1.1.6 0 3.9-3.2 7.2-7 3.3-3.9 6.5-7.6 7.2-8.3.6-.7 5-7.1 9.7-14.2 11.8-17.8 11.7-17.7 12.7-16.7.5.5 1.1 2.4 1.3 4.3.3 1.9.9 5.5 1.5 8 1.6 6.7 1.3 19.4-.5 26.4-.9 3.3-1.7 7-1.8 8.1-.2 1.1-.8 3-1.5 4.3-.9 1.7-.9 2.2.1 2.2 2.2 0 19.8-17.9 19.8-20 0-.7.6-1 1.3-.7 1.4.5 1.3 5.6-.3 11.2-6.1 20.6-16 43.9-21 49.3-.9 1-1.9 2.3-2.1 2.9-1.7 4.5-15.1 18.3-17.8 18.3-3.2 0-9.6 2.9-8.5 3.9 4.8 4.4 19.7 2.6 37.4-4.5 6.4-2.5 16.6-8.9 23-14.3 4.9-4.2 18.1-17.1 17.4-17.1-.2 0 .8-1.2 2.1-2.6 1.4-1.5 2.5-3.4 2.5-4.3 0-.9.7-.3 1.5 1.3 1.3 2.4 1.4 3.9.5 7.8-.5 2.7-1 9.3-1 14.6-.1 8.8-2 28.9-3.6 37-.6 3.2 0 3.9 2.3 2.4 1.8-1.1 12.5-20.5 15.3-27.6.9-2.4 1.3-2.7 2.1-1.5 1.1 1.8 1.2 36.6 0 37.3-.4.3-1.1 2.5-1.3 4.8-.6 5.1-4.9 14.2-9.1 19.3-2.7 3.3-11.7 8.5-14.7 8.5-2.5 0-.2 2.5 2.6 2.9 3.8.4 16.5-1.9 18.4-3.4.8-.6 3.1-1.8 5-2.5s6.8-3.5 10.9-6.2c4.1-2.6 7.8-4.8 8.2-4.8 2.2 0 .5 4.3-3.1 8.2-10.2 10.7 3.7 8.8 15.9-2.2 2.5-2.2 4.8-4 5.3-4 .4 0 .8 1.3.8 3 0 1.6.4 3 .8 3 .6 0 2.2 5.6 3.8 13.5.1.5.7 3 1.2 5.5.6 2.5 1.2 10.7 1.3 18.2.3 13.2.2 13.9-2 15.9-1.6 1.5-2.1 2.8-1.7 4.4.6 2.2.5 2.2-3.6.8-2.3-.8-5.3-1.2-6.7-.8-3.4.8-9.1 3.7-9.1 4.7 0 .5-.6.8-1.3.8-1.7 0-9.9 8.5-17.3 18-3.2 4.1-6.2 7.7-6.5 8-1.2 1-13.6 20.7-16.3 26-1.6 3-3.4 6.2-4.1 7-1.2 1.4-7.8 15.2-12.4 25.5-3.2 7.3-9.7 9.5-27.8 9.5-10 0-12.5.8-17.2 5.9-3.3 3.6-8.1 10.8-8.1 12 0 .6-.4 1.1-1 1.1-1 0-22 41.7-22 43.8 0 .7-.4 2-.9 3-1.9 3.9-4 9-5.7 13.4-.9 2.7-2.1 4.8-2.5 4.8-.5 0-.9.7-.9 1.5 0 1.6-4.4 9-6.7 11.3-2.5 2.5-3.3 5-2.7 8.1.4 1.7 1.1 3.4 1.5 3.7.5.3.9 1.4.9 2.5 0 2.5 9 20.6 17 34.4 3.3 5.6 3.3 5.4.2 9.2-1.2 1.5-3.8 4.8-5.7 7.2-7.6 9.4-11.4 21.9-9.4 31.1.5 2.6.9 5.1.8 5.6-.4 1.3 2 13.9 3.1 17 .9 2.2.1 3.8-5.8 12.7-3.7 5.6-6.9 10.6-7.1 11.2-.2.5-1.3 1.8-2.4 3-1 1.1-3 4.3-4.3 7.2-1.3 2.8-2.9 5.5-3.4 5.8-2.8 1.7.9 27.2 8.2 56.7l.9 3.8h139.4c138.8 0 139.5 0 139.5-2 0-1.1-.7-2-1.5-2-1.1 0-1.5-1.1-1.5-4 0-3.6-.2-4-2.5-4-2.2 0-2.5-.4-2.5-4s.3-4 2.4-4c1.9 0 2.3-.4 1.9-2-.3-1.1-1.4-2.5-2.4-3.1-2.5-1.3-2.4-2.7.4-3.2l2.2-.4-2.2-.2c-2.8-.1-3.2-4.5-.5-5.6 1.5-.6 1.5-.8.1-1.8-.9-.7-1.8-1.9-2.2-2.7-.4-1-.6-.8-.6.7-.1 1.3-.7 2.3-1.6 2.3-1.8 0-2-2.7-.2-3.3.9-.3.8-1.3-.6-4.1-1.2-2.6-2.2-3.6-3.3-3.2-.8.3-1.3.2-1-.3.3-.5-.3-1.9-1.4-3.1-1.1-1.3-2-2.6-2-2.9 0-.3-1.4-2.1-3-4-1.7-1.9-2.8-3.6-2.6-3.9.6-.5 6.6 3.7 6.6 4.7 0 .4 1.4 1.8 3.1 3l3.1 2.3-1.3-2.4c-.6-1.2-2.1-3.2-3.3-4.4-1.2-1.1-3.7-4-5.6-6.3-1.9-2.4-5-5.8-6.7-7.6-1.8-1.8-3.3-3.8-3.3-4.3s-.7-1.5-1.6-2.3c-.8-.7-3.8-4.6-6.6-8.8-2.8-4.1-8.3-10.7-12.4-14.6-4-3.8-7.8-8.3-8.3-9.9-.8-2-1.6-2.6-2.7-2.2-1.1.4-2.9-.9-5.8-4-4.1-4.7-10.1-14.4-8.9-14.4.4 0-.4-1.1-1.6-2.4-3.5-3.8-2-5.1 1.8-1.7 1.9 1.7 4.8 4 6.6 5.2 1.8 1.3 4.1 3.5 5.1 5.1 1 1.5 2.6 2.8 3.4 2.8 1.2 0 8.3 4.8 14.5 9.7 8.8 7 40.1 24.2 56.2 30.9 9.7 4 33.5 12 39.8 13.4 19.9 4.2 43.5 7.4 48 6.6 5.1-1 3.3-2.6-2.8-2.6-2.9 0-7-.5-9.2-1.1-2.2-.6-6.2-1.4-9-1.9-5.1-.8-20.5-4.1-28.5-6.1-2.5-.6-5.2-1.2-6-1.4-8.3-1.7-33.2-11-42.8-16-2.6-1.3-5.8-2.9-7.2-3.4-2.6-1.1-6.1-3.2-7-4.1-.3-.3-2.5-1.4-5-2.5-5.1-2.2-4.7-1.9-24-14.8-16.2-10.7-42.2-31.7-45.2-36.6-1.9-3-6.5-14.9-9.4-24.2-1.4-4.5-3.7-36.7-2.7-38.2.3-.5 1.6-1.2 2.9-1.7 1.3-.5 2.4-1.6 2.4-2.4 0-1.7 9.5-4.9 12.5-4.2 2.4.6 16.7-4.6 19.6-7.1.9-.8 5.3-3.7 9.7-6.6 4.4-2.9 10.9-7.2 14.3-9.6 5.8-4 6.4-4.2 7.4-2.6 7.1 12.3 27.2 28.4 48 38.4 14.1 6.8 14.6 7 17.2 7.4 1.1.2 2.7.8 3.5 1.4 2.9 2.3 7.4 2.8 16.6 1.7 3-.3 7.2-.1 9.5.5 2.3.7 6 1.3 8.2 1.5 2.2.2 6.5.8 9.5 1.4 23.4 4.6 81.7 4.1 109-.9 3-.5 7.1-1.1 9.1-1.4 1.9-.2 5.8-.9 8.5-1.5 2.7-.7 6-1.4 7.4-1.6 8.7-1.7 41.9-14.8 44-17.4.3-.3 1.9-1.2 3.5-2 4.5-2.2 19.3-12.3 25.2-17.2 2.9-2.4 6.7-5.4 8.4-6.7l3.2-2.5 2.1 2.7c1.1 1.4 3.9 5.2 6.1 8.3 4.2 5.9 19.6 21.7 20.4 20.8.3-.2-.1-1-.7-1.6-.7-.7-1.2-1.8-1.2-2.5 0-2 12.6 4.6 14.1 7.4 1 1.9.9 2.6-.6 4.3-1 1.1-2.4 2-3.2 2-.7 0-2.1.4-3.1 1-.9.5-6 2.3-11.2 3.9-13.5 4.2-38.3 13.1-39.4 14.2-.6.5-1.8.9-2.8.9-1 0-2.6.4-3.6 1-2.4 1.3-7.8 3.5-13.7 5.6-2.7.9-5.4 2-6 2.4-.5.3-3.8 1.5-7.2 2.6-3.5 1-6.3 2.2-6.3 2.6 0 .5-1.1.8-2.5.8-2.6 0-10.8 2.4-13.7 4-1 .6-2.6 1-3.5 1.1-1 0-3.6.9-5.8 2-2.5 1.2-3 1.7-1.5 1.4 1.4-.3 4.6-1 7.1-1.5 5-1 36-11.3 53.9-18 23.5-8.7 27.6-10.2 30.6-10.9 1.8-.5 3.7-1.1 4.3-1.5 1.8-1.2 18.3-5.8 18.8-5.3.5.6-3.6 3.6-21.3 15.6-19.3 13-39.8 23.9-68.1 36.1-1.3.6-3.3 1.4-4.5 2-23.3 10-76.1 26.2-95.1 29.1-3.3.5-6.2 1.1-6.6 1.3-.4.3-9 1.9-19.2 3.5-10.1 1.7-21.1 3.5-24.4 4.1-13.5 2.2-45.4 5.6-61.5 6.5-27.1 1.5-31.6 2.4-21.4 4.5 3.2.7 7.7 2.1 9.8 3.1 5.1 2.4 6.8 2.4 3.6-.1-1.4-1-2.2-2.1-1.9-2.5.3-.3 4.2-.8 8.5-1.1 4.3-.2 12.4-.9 17.9-1.4 5.5-.5 13.4-1.2 17.5-1.5 4.1-.3 10.9-1 15-1.6 18-2.4 22.9-3.1 29-4.1 3.6-.5 9-1.4 12-1.8 10.5-1.7 34.8-7 50.1-11 8.5-2.3 16.1-4.2 16.9-4.4.8-.2 4.4-1.3 8-2.5 3.6-1.1 8.8-2.8 11.5-3.7 2.8-.9 5.9-1.9 7-2.4 1.1-.5 4.7-1.7 8-2.8 20.5-6.7 66.2-30.3 91.7-47.4 4.8-3.2 9.4-5.8 10.3-5.8 2.1 0 5-1.6 10.4-5.6 2.4-1.9 4.7-3.2 5.1-2.9.4.3 1.1 1.9 1.4 3.7 1 5.1.7 35.3-.4 40.1-.5 2.3-1 6.8-1 9.9 0 3.2-.4 5.8-1 5.8-1.3 0-4 9.6-4 14.5 0 2.3-.6 5-1.4 6-1.2 1.7-1.4 1.5-2-1.9-.4-2-.4-4.1 0-4.7 1-1.7-.6-10.3-1.8-9.1-.7.7-.7 1.6 0 2.9.7 1.2.7 2.5.1 3.4-.5.7-.9.9-1 .4-.4-2.7-1.8 8.9-1.8 15.2-.1 4-.5 7.3-.9 7.3s-1.6 2-2.6 4.5c-1.1 2.5-2.5 5-3.3 5.6-1 .9-1.3.3-1.3-3.4 0-2.5.4-4.8.9-5.1 1.3-.8 2.2-6.4 1.5-9.2-.9-3.7-2.4-1.8-2.4 3 0 2.4-.7 5.7-1.6 7.5-1.1 2.3-1.4 4.5-1 7.5.5 3.3.3 4.5-.7 4.9-.8.3-1.7 1.9-2 3.6-.5 2.6-4.8 9.2-12.8 20.1-1 1.4-2.5 3.8-3.4 5.5-.9 1.7-5.7 5.9-11.4 10-10.8 7.6-15.3 13.3-18.6 23.5-4 12.4-7 20.4-9.3 25.2-.2.5 57.3.8 127.7.8H1150l-2.6-5.7c-5.3-11.8-5.7-12.5-9.9-18.8-1.1-1.7-2.9-4.8-4-7s-2.5-4.6-3.2-5.3c-.8-.8-.9-2.2-.3-4.1.4-1.7 1.1-6.1 1.5-9.8.8-7.5 2-10.4 5.9-14.6 3.3-3.5 5.5-12 4.4-16.7-2.5-10.4-4.7-42-3-42 .6 0 2.1-3 3.5-6.8 1.4-3.7 4.4-11.9 6.7-18.2 10-27 9.9-26.6 8.3-32.9-.8-3.1-1.8-7.2-2.2-9.1-.5-1.9-2.1-8-3.6-13.5s-3.1-11.8-3.6-14c-.7-3.2-8.9-34.2-11.7-44.5-1.1-4-3.2-6.3-9.7-10.7-7.9-5.4-14-11.9-15.3-16.3-.5-1.9-1.5-7.6-2.2-12.5-.6-5-1.6-11-2.1-13.5s-1.3-7.4-1.9-11c-2.7-17.9-4.8-21.9-12.4-23.7-3.7-.8-5.5-.7-9.8.8-5.9 2-9.6 2.3-13 1-2.6-1-7.2-2.3-14-4.1-2.7-.7-4.8-1.8-4.8-2.6 0-1.5-1.4-4.9-7.1-17.2-2.2-4.6-3.9-8.5-3.9-8.8 0-.8-7.8-16.5-10-20.2-1.1-1.7-2.8-4.5-3.7-6.1-3-4.9-10.3-15.1-12.1-16.9-4.4-4.3-6.6-4.7-13.4-2.2-3.5 1.3-7.5 2.9-9 3.7-3 1.4-3.5.6-1.8-2.5 1.3-2.4 7-15.9 7-16.6 0-1.7 8.4-13.6 9.5-13.6.7 0 1.6-.6 1.8-1.3.7-1.7 2.9 1.3 2.2 3.1-.2.7.1 2.9.9 5 .7 2 1.9 5.5 2.6 7.7 1.7 5.2 10.2 19.6 11.4 19.2 1.3-.4 1-15.9-.3-21.7-1.4-5.8-1.4-20.7-.1-21.5.6-.4 3 .5 5.3 1.8 2.3 1.4 6.9 3.3 10.2 4.3 7.6 2.2 23.1 2.5 26.8.5 3.3-1.8 3.4-2.9.3-3.7-3.3-.8-5.1-8.8-4.2-19.1.8-9.8 2.9-21.9 3.9-22.9.4-.4.7-1.5.7-2.4 0-2.7 5.8-22.2 7-23.4.5-.5 1-1.8 1-2.7 0-2 3.9-11.4 4.4-10.8.2.2.7 6 1.1 12.9.6 13.1 2.2 21.3 4 20.7 1.2-.4 1.9-4.4 3.4-18.1.6-5.5 1.3-10.2 1.6-10.4 1.1-1.1 3.4 2.2 4.4 6.3.6 2.4 1.6 4.7 2.1 5 .6.4 2.3 3.2 3.9 6.4 3.1 5.9 8.1 12.1 10 12.1 1.6 0 1.4-1.6-1-8.2-1.6-4.6-1.9-7.4-1.5-12.6.3-3.7.6-7.4.6-8.4.1-.9.9-1.8 1.8-2 2.3-.6 6.1-8.3 6.9-13.8.5-3.9 2.6-10.3 4-12.5.7-1.1 1.3-2.9 1.3-4.2 0-1.2.4-2.4.9-2.7.5-.3 1.4-2.9 2.1-5.7l1.2-5 2.4 3.5c1.3 1.9 2.4 4.6 2.4 6 0 1.4.4 2.7.9 3 .4.3 1.1 1.9 1.4 3.6.4 1.6 2.6 5.4 5.1 8.4 2.4 2.9 4.6 6 4.8 6.7 1.1 3 1.7 0 .7-3.4-.5-2.1-.8-4.1-.5-4.6.6-.9 2.1-15.7 3.7-35.9.5-6.7 1.3-17.7 1.9-24.5.5-6.7 1.3-13.9 1.9-16 .5-2 .7-4.6.4-5.5-.7-2.6 2.2-4.8 4.2-3.2.8.7 1.5 1.7 1.5 2.2 0 .6.6 2.4 1.4 4.1.8 1.8 2.2 4.8 3 6.7.9 1.9 2.5 5 3.5 6.9 1.7 2.8 2.1 3.1 2.7 1.7.4-.9.4-3.4 0-5.4-.3-2-1.1-6.4-1.6-9.7-.6-3.3-1.3-7.8-1.5-10-.3-2.2-.9-6.3-1.4-9-.6-2.8-1.5-8.2-2.1-12-.7-3.9-1.4-8.2-1.7-9.7-.8-4.4 2.3-3.5 8.6 2.5 4.9 4.6 9.3 7.2 23.2 13.8.9.4 3.4 1.1 5.5 1.5 2.2.3 4.4.9 4.9 1.3 1.8 1.1 11 1.1 13.8-.1 2.6-1 3.7-2.8 1.7-2.8-1.3 0-16-14.8-16-16.1 0-.5-1-2-2.1-3.3-4.1-4.7-10.6-17.4-14.8-29.1-1.8-5-3.7-9.8-4.2-10.7-.5-1-.9-2.9-.9-4.3s-.4-3.3-1-4.3c-1.1-2.1-3-10.2-3.7-16-.9-7.5.9-7.4 8.9.6 6.6 6.6 11.9 9.5 10.5 5.8-.3-.8.1-1.7 1-2.1 1.3-.4 1.4-.8.5-1.7-.7-.7-1.2-2.1-1.2-3.3 0-1.2-.5-2.6-1.2-3.3-.6-.6-1.3-2.6-1.4-4.3-.2-1.7-.6-3.8-1-4.7-.4-1-.9-2.8-1-4.1-.2-1.3-1-5.6-1.8-9.5-.8-3.9-1.9-10-2.5-13.6-2.8-18.3-4.4-26.7-5.2-28.2-2-3.9.2-10.1 2.9-8.4.6.3 1.5-.1 2.2-.9.7-.8 2.3-1.5 3.6-1.5 1.6 0 2.4-.6 2.5-1.8 0-1.1.2-1.3.6-.4.4 1 .9.7 2-.8 1.4-2 1.6-2 3.4-.4 1 .9 2.5 3.8 3.4 6.5.9 2.7 2.1 4.9 2.6 4.9s.9.7.9 1.6c0 .9 1.6 4.9 3.5 9 1.9 4 3.5 7.9 3.5 8.5 0 .7.6 2 1.4 2.8.8.9 1.7 2.9 2 4.4 1.2 6.7 5.3 16.7 6.9 16.7 1.2 0 0-34.6-1.3-37-.5-1-1.1-4.9-1.4-8.6-.2-3.8-.9-8.5-1.5-10.5s-1-4.7-1-6c.1-1.3-.1-3.1-.5-4-.5-1.2.3-2.5 3.1-4.5 6.5-4.8 9.3-9.4 5.7-9.4-2.5 0-.6-1.8 3.4-3.1 2-.6 4.9-2 6.4-3 1.4-1.1 3.1-1.9 3.8-1.9.6 0 1.8-.6 2.5-1.3 2.9-2.5 4.4-3.7 4.9-3.7.9 0 6.7-4.2 16.1-11.5 9.8-7.6 12.5-9.9 22.5-19 3.6-3.3 9.4-8.5 12.9-11.5 3.4-3 8-7.8 10.2-10.5 2.3-2.8 7.8-8.9 12.5-13.6 4.6-4.7 8.4-8.9 8.4-9.3 0-.6 2.5-3.5 9.5-11 1.7-1.8 3.9-4.5 5-6.1 1.1-1.6 3.2-4.3 4.6-6 7.9-9.3 51.9-73.1 51.9-75.1 0-.4 1.3-2.3 2.9-4.3 1.5-2 5-7.3 7.7-11.9 2.7-4.5 6.6-11 8.6-14.5 5.1-8.4 19.8-37.7 19.8-39.4 0-.7.5-1.3 1-1.3.6 0 1-.7 1-1.5s.4-2.3 1-3.3c.5-.9 1.6-3.5 2.5-5.7.9-2.2 2.1-4.8 2.7-5.9.5-1 1.8-4.4 2.8-7.5 2.3-6.8 4-11.9 5.1-14.6.4-1.1 1-3.1 1.3-4.5 1.3-6.4 3.2-12.9 3.9-13.6.4-.4.7-2.1.7-3.8 0-1.7.7-6.7 1.4-11.1.8-4.4 1.4-13 1.5-19 .2-10.5.1-11.2-2.2-13.4-2.4-2.2-2.6-2.2-7.3-.6-2.7.9-5.3 2-5.9 2.4-.5.4-3.7 1.5-7 2.5-3.3.9-6.8 2.1-7.7 2.7-1 .5-3.1.9-4.7.9s-4.2.5-5.8 1.1c-3.4 1.3-11.1 2.8-17.8 3.6-2.7.3-5.7.9-6.5 1.3-.8.3-3.2.8-5.4.9-2.1.1-5.4.8-7.3 1.6-2 .8-4.6 1.5-5.8 1.5-1.2 0-2.8.7-3.5 1.5-.7.8-1.9 1.5-2.6 1.5-.8 0-2.2.4-3.2.9-.9.5-5.1 1.7-9.2 2.6-4.1 1-7.9 2.1-8.5 2.5-.5.3-2.8.7-5 .9-2.2.1-5.4.6-7.1 1.2-1.7.5-4.6 1.1-6.5 1.3-1.9.2-7.7 1.1-12.9 2-22.1 3.9-54.6 7.1-84 8.1-8.5.3-24.7 1-36 1.6-12.2.7-38.8.9-65.5.6-46.9-.6-61.6-1.1-77.5-2.8-5.2-.5-14.2-1.4-20-1.9-5.8-.6-14.5-1.4-19.5-1.9-8.7-.8-14.5-2.5-14.5-4.3 0-.4-.5-.8-1.1-.8-.6 0-2.5-1-4.2-2.3-4.6-3.2-6.6-4.3-12.3-7.2-2.9-1.4-5.7-3.2-6.4-4-.7-.8-2.1-1.5-3.1-1.5-1.1 0-1.9-.4-1.9-.8 0-.5-2.2-1.8-4.9-3s-5.2-2.6-5.6-3.2c-.3-.5-1.5-1-2.6-1-1 0-1.9-.5-1.9-1 0-.6-1-1-2.1-1-1.2 0-3.2-1.1-4.5-2.5-1.3-1.4-2.9-2.5-3.7-2.5-.8 0-2-.7-2.7-1.5-.7-.8-1.7-1.5-2.2-1.5-.6 0-2.2-.9-3.8-2-3.9-2.8-23.8-13-25.4-13-.7 0-3.2-1-5.7-2.2l-4.4-2.2 4.5-.7c2.5-.4 8.7-1 13.8-1.4 5.1-.4 9.5-1.2 9.8-1.6.3-.5 2.1-.9 4-.9s4.2-.4 5.2-.9c.9-.5 3.7-1.7 6.2-2.7 5.3-2.1 9-5.1 9-7.3 0-.9-1.5-2.3-3.2-3.1-2.8-1.3-10.6-1.5-48.3-1.5-55.4-.1-69.8-.4-71.6-1.7-1.1-.8-1.1-1.1-.1-1.5.7-.3 3.2-2 5.5-3.9 2.3-1.8 5.9-4.5 7.9-5.9 5.2-3.5 28.6-26.9 34-34 2.5-3.3 5.5-6.9 6.7-7.9 1.1-1.1 2.1-2.4 2.1-3.1 0-.7.9-2 2-3s2-2.3 2-2.9c.1-.6 1.4-2.7 3-4.6 1.7-1.9 3-3.9 3-4.5 0-.5.9-2.1 2-3.5s2-3.2 2-4.1c0-.9.9-2.8 2-4.2 2.6-3.2.8-4.7-2.3-2-1.2 1.1-4.2 2.8-6.7 3.7-2.5 1-4.7 2.1-5 2.4-.3.4-2.2 1.6-4.2 2.6-2.1 1.1-3.8 2.3-3.8 2.8 0 .4-.5.8-1.2.8-.6 0-2.5 1-4.2 2.3-1.7 1.3-3.9 2.6-4.8 3-1 .3-1.8 1.1-1.8 1.7 0 .5-.5 1-1.1 1-.6 0-3.2 1.5-5.8 3.3-2.5 1.9-5.4 3.7-6.3 4-1 .4-1.8 1.1-1.8 1.7 0 .5-.5 1-1.1 1-.6 0-3.2 1.4-5.7 3.2-7.8 5.3-9.5 6.3-14.2 8.9-2.5 1.3-5.8 3.4-7.3 4.6-1.6 1.3-3.3 2.3-3.8 2.3s-3.9 1.9-7.6 4.2c-8.5 5.1-39.3 20.8-41 20.8-.7 0-1.3.4-1.3.8 0 .5-1.9 1.5-4.2 2.2-2.4.8-6.8 2.5-9.8 3.8-3 1.3-8.2 3.3-11.4 4.3-3.3 1.1-6.4 2.3-7 2.8-1.1.9-14.6 4.9-19.6 5.8-1.4.3-3.4.8-4.5 1.3s-4 1.1-6.5 1.3c-2.5.3-6.4 1-8.8 1.6-4.6 1.2-4.1 1.4-20.7-7.8-11.9-6.6-23.2-12.8-28.9-15.9-3.3-1.9-7.8-4.4-9.8-5.8-2.1-1.3-4.2-2.4-4.8-2.4-.5 0-1-.5-1-1 0-.6-.5-1-1.1-1-.6 0-3.4-1.5-6.2-3.3-2.9-1.9-7-4.4-9.2-5.7-2.2-1.3-14.5-9.4-27.3-17.9-12.9-8.6-25.2-16.8-27.4-18.2-2.2-1.5-4.3-3-4.7-3.5-.3-.5-4.6-3.6-9.6-6.9-10.1-6.7-44.8-32.6-45.3-33.7-.2-.5-.8-.8-1.4-.8-.6 0-3.6-2.1-6.6-4.8-3.1-2.6-7-5.8-8.8-7.2-5.7-4.5-17.9-14.4-19-15.5-.6-.5-3.7-3.3-6.9-6-3.2-2.8-9.9-8.9-14.9-13.6-5-4.8-12.3-11.3-16.1-14.6-3.9-3.3-9.3-8.6-12-11.9-2.8-3.2-6.6-7.6-8.5-9.9-5-5.6-8.3-10.2-11.1-15.5-4.4-8-9-15-10-15-.5 0-2.9 1.9-5.2 4.3zm36.3 87.8c0 .6-.4.7-1 .4-.5-.3-1-1.1-1-1.6 0-.6.5-.7 1-.4.6.3 1 1.1 1 1.6zm3.8 5.7c3.3 5.4 4.3 7.1 8.3 13.2 6.2 9.5 7.4 11.4 8.6 14.2.7 1.6.8 2.8.3 2.8-.6 0-1-.7-1-1.5 0-.9-.7-1.8-1.5-2.1-.8-.4-1.5-1.2-1.5-2s-.4-1.4-1-1.4c-.5 0-1-.4-1-.9 0-.4-2.1-3.9-4.6-7.7-2.6-3.8-5.5-8.8-6.6-11.2-1-2.3-2.3-4.2-2.8-4.2-.6 0-1-.7-1-1.5 0-2.5 1.4-1.7 3.8 2.3zM543 217c0 .5-.4 1-.9 1-.6 0-1.3-.5-1.6-1-.3-.6.1-1 .9-1 .9 0 1.6.4 1.6 1zm903 119.9c0 3.3-.4 6.3-1 6.6-.5.3-1 1.7-1 3.1 0 1.4-.9 4.3-2 6.4-1.7 3.3-1.8 4-.6 4 .8 0 1.8-.5 2.1-1 .3-.6 1.1-1 1.7-1 1.2 0 1.2-.4-3.7 22.5-2 9.3-3.9 18.6-4.1 20.5-1.1 6.8-8.9 27.9-11.9 32-.6.8-1.7 2.8-2.5 4.5-.8 1.6-3.7 6.8-6.4 11.5s-6 10.5-7.4 13c-1.4 2.5-3.1 5.1-3.9 5.8-.7.7-1.3 2-1.3 2.8 0 .8-.4 1.4-.9 1.4s-1.5 1.2-2.2 2.7c-1.6 3.1-21.9 34.3-25 38.3-1 1.4-4.4 6.3-7.6 11-6 8.9-23.9 33.7-25.7 35.6-.6.6-2.7 3-4.6 5.4-7.3 9.1-23.6 26-25.1 26-.5 0-.9.6-.9 1.2 0 1.8-10.5 10.8-12.7 10.9-1 0-1.3.3-.6.5 1.3.6.7 3.4-.7 3.4-.5 0-3.1 2.2-5.8 5-2.7 2.7-5.4 5-5.9 5-.4 0-1.3-1-1.8-2.3-1.3-2.9-5.8-3.5-7.7-1-1.3 1.8-6 4.4-10.5 5.8-1.3.3-2.3 1.2-2.3 1.9 0 .6-1.5 1.7-3.3 2.4-4.3 1.5-4.7 1.5-4.7-.3 0-.8.8-1.5 1.8-1.5.9 0 2.8-1.2 4.1-2.5 1.3-1.4 2.9-2.5 3.6-2.5.8 0 3.8-2.5 6.9-5.5 3-3 5.9-5.5 6.5-5.5.6 0 1.1-.7 1.1-1.5s.9-1.5 2-1.5 2-.7 2-1.5c0-1.9 4.9-6.7 6.1-6 .5.4.9-.5.9-2 0-1.4-.7-2.8-1.5-3.1-1-.4-1.5-2-1.5-4.5 0-3.9 0-3.9-3.9-3.9-2.2 0-4.1.5-4.4 1.2-.5 1.6-1.3 1-2.1-2-.6-1.6-.3-2.2.8-2.2.9 0 1.6-.5 1.6-1 0-.6-1.8-1-4-1-3 0-4-.4-4-1.6 0-1.6-1.5-1.7-7.5-.4-.5.1-2 .2-3.2.1-1.7-.1-2.1-.7-2-2.9.2-2.3-.2-2.7-2.6-2.7-3.6 0-4.7-1.5-10.4-13.5-6.1-12.8-6.9-14.8-8.4-19.5-.7-2.2-2.3-6.3-3.6-9.2-1.3-2.8-2.3-5.9-2.3-6.7 0-1.5-2.1-6.9-4.3-11.1-.6-1.1-1.2-2.9-1.3-4-.2-1.8-1-4.2-3.4-11-.4-1.1-1.5-3.7-2.4-5.8-.9-2.1-1.6-4.6-1.6-5.5 0-1-.7-2.7-1.5-3.8-2.5-3.4-1.7-8 1.1-5.5 3.8 3.5 23.8 12.1 28.2 12.1 1.2 0 2.4.4 2.7 1 1 1.6 8.5 1.2 8.5-.4 0-1.9-6.2-7.8-12.5-11.9-2.7-1.7-5.8-3.9-6.7-4.8-1-.8-3.7-2.5-6-3.7-2.4-1.2-5.6-3.2-7.1-4.5-2.4-1.9-2.6-2.3-1-2.4 3.1-.3 14.6-2.2 18.8-3.2 3.7-.8 7.2-2 13.3-4.2 4.4-1.7 15-6.3 21.9-9.5 2.8-1.3 5.6-2.4 6.1-2.4s1.9-1.1 3.1-2.4c1.3-1.4 3.6-3 5.2-3.6 1.6-.7 2.9-1.9 2.9-2.6 0-1.1-1.6-1.3-7.7-.9-14.3 1-73.9 1.4-76.9.6-3.3-1-2.7-1.3 5.1-3.1 8.3-1.9 13.3-2.7 29-5 14.1-1.9 20-3 53.5-9.6 16.8-3.3 33.4-7.5 44.8-11.3 11.7-4 31.6-12.5 37.5-16.2 2.6-1.6 4.9-2.9 5.2-2.9 1.3 0 16.2-10.3 24.5-16.9 11.1-8.8 31-27.9 31-29.7 0-1.1 1.4-2.1 3.3-2.3.4-.1.7 2.6.7 5.8zm-183.4 28.5c1.5 1.2 1.7 1.8.8 3.3-1.5 2.4-5.8 2.4-6.2 0-.4-1.8 1.4-4.7 2.7-4.7.4 0 1.6.6 2.7 1.4zm2.4 8.6c0 1.3-.7 2-2 2-2.5 0-2.6-1.6-.2-2.9 2.3-1.4 2.2-1.4 2.2.9zm-771.4 46.5c1.8 1.4 1.7 1.4-1.3.9-2.5-.5-3.3-.3-3.3.8 0 .8-1.2 2.8-2.7 4.5-1.6 1.6-3.7 4.2-4.8 5.8-2.9 4-2.8 3.9-5.1 5.2-4.4 2.4-5.9-3.2-2-7.8 1.4-1.7 2.9-4.1 3.2-5.5.7-2.6 3.9-3.9 7.7-3.2 1.3.3 2.9-.1 3.5-.9 1.6-1.7 2.4-1.6 4.8.2zm-39.5 2.8c2.1 1.3 4.4 7.8 3 8.7-.4.3-1.1 1.2-1.4 2-.4 1.2-.6 1.1-.6-.3-.1-.9-.9-1.7-1.9-1.7-1 0-2.2-.4-2.7-.8-.6-.5-3.1-1.7-5.7-2.6-2.7-1-4.8-2.1-4.8-2.6s-1.6-1.4-3.5-2.1c-1.9-.7-3.5-1.7-3.5-2.2 0-1.4 18.6 0 21.1 1.6zm10.6-.7c-.3.3-1.2.4-1.9.1-.8-.3-.5-.6.6-.6 1.1-.1 1.7.2 1.3.5zm35.3.4c0 1.3-1.1 1.3-3 0-1.2-.8-1.1-1 .8-1 1.2 0 2.2.4 2.2 1zm785.5 7.9c1.7.7 1.3 1.1-3 3.1-2.7 1.2-8.3 3.8-12.3 5.7-6.4 2.9-17.9 7-28.7 10.2-1.6.5-7.5 1.5-13 2.1-9.6 1.1-10.5 1.1-18.5-1.3-4.7-1.4-9.2-2.8-10-3.1-2.4-.9-4.7 1-3.5 3 1.2 2 5.8 3.7 13.9 5.4 3.7.8 6.8 2.1 8.3 3.6 1.3 1.3 3 2.4 3.7 2.4.8 0 1.9.7 2.6 1.5.7.8 3.2 2.4 5.5 3.4s6 3.2 8.3 4.8c2.3 1.7 5.4 3.5 6.9 4.2 1.6.6 3.4 2 4 3 1.1 1.7.9 1.7-2.8.5-2.2-.8-4.7-1.8-5.7-2.3-.9-.5-4.4-1.7-7.7-2.6-3.3-1-9.8-3.7-14.4-6.2-4.8-2.5-8.8-4-9.3-3.5s.9 5.9 3.2 12.8c2.3 6.5 4.6 13.5 5.1 15.4 2.1 7 4.8 23.6 4.9 29.2 0 3.3.4 5.8 1 5.8s.8 1 .4 2.4c-.3 1.3-.1 2.7.5 3 .6.4 1.1.2 1.1-.3 0-2.2 2-1 2.1 1.1 0 2.2.1 2.2.8.3.8-1.9.8-1.9 2 .4.7 1.2 1 2.5.8 2.8-1.2 1.2-4.3.8-5.4-.6-.6-.9-1.5-1.2-1.9-.8-.5.4-.2 1.2.6 1.7 1.9 1.2 2.1 5 .4 5.7-.9.3-1.4 2-1.4 4.4 0 3.9-1.3 5.2-2.4 2.4-.3-.8-1.6-1.5-2.8-1.5-1.3 0-3.2-1.1-4.2-2.5s-2.9-2.5-4.1-2.5c-1.6 0-2.4-.7-2.7-2.5-.3-1.4-.1-2.3.6-2.2.6.1 1.1-.9 1.1-2.3 0-1.7-.5-2.4-1.5-2.1-2.8.8-14 .8-14 .1 0-1.4 2.4-1.8 7.9-1.3 4.3.3 5.2.1 4.8-1-.4-1.1.9-2 4.1-3.2 5.9-2.2 7.2-3.3 7.2-5.7 0-1.7-.4-1.9-2.2-1.3-1.3.4-4.6 1.2-7.4 1.7l-5.1 1.1-4.2-4.2c-2.2-2.2-4.8-4.1-5.6-4.1-.8 0-1.5-.3-1.5-.8 0-.4-1.8-1.8-4-3.2-2.2-1.4-4-2.8-4-3.2 0-.5-.9-.8-1.9-.8-1 0-2.1-.7-2.5-1.5-.3-.8-1.2-1.5-2.1-1.5-.8 0-1.5-.5-1.5-1 0-.6-.8-1-1.7-1.1-2.5-.1-9.6-4.1-10.1-5.7-.2-.8.8-1.2 3.1-1.2 7.4 0 8.3-1.7 3.6-6.8-1.6-1.7-2.6-3.2-2.2-3.2.5 0 1.3-1 1.8-2.3.8-1.8.6-2.6-1.2-4.5-1.2-1.2-2.7-2.2-3.4-2.2-1.7 0-6.9-3.9-11.5-8.6-3.6-3.7-4.2-5-4.6-9.8-.4-4.7-.2-5.7 1.3-6.1 1.1-.4 1.6-1.2 1.3-2.3-.5-1.3-.4-1.4.4-.3.7 1 1.4 1 3 .2 3.2-1.7 12.1-1.4 12.8.4.4.8 1 1.5 1.5 1.5s1.9 1 3.2 2.2l2.2 2.3.3-3.9c.4-4.3-.7-5.6-5-5.6-1.7 0-2.8-.5-2.8-1.4 0-.7-1.2-2.1-2.6-3-1.4-1-2.3-2.3-2.1-2.9.5-1.7 21-5.7 21.9-4.3.4.6-.1 1.4-1.2 1.8-2.4.9-2.5 1.4-.4 2.2.9.3 1.2.2.9-.5-.4-.6.3-.7 2.2-.3 2.4.6 2.6.5 1.5-.8-1.4-1.7-.7-4.8 1.2-4.9.6 0 2-.2 3.1-.5 1.1-.2 21.5-.8 45.4-1.4 23.8-.5 43.6-1.2 43.9-1.5.7-.6 1.2-.6 3.7.4zM815 441c0 1 .7 2 1.5 2.4.8.3 1.5 1.4 1.5 2.5s.4 2.2.9 2.5c.5.3 1.2 1.8 1.5 3.3.8 3.2 1.6 6.5 4.5 18.1 1.2 4.6 1.9 8.8 1.5 9.3-.3.5.2.9 1 .9.9 0 1.6.6 1.7 1.2.1 3.7 1.9 15.9 2.8 19.8.5 2.5 1 7.2 1.1 10.6 0 3.4.4 7.4.9 9 .5 1.6 1.2 7.2 1.5 12.4.4 5.2 1 11.3 1.6 13.5.5 2.2 1 9.7 1 16.7 0 12.6 1.1 16.5 2.5 9.1.4-2.1 1.1-10.5 1.6-18.8 1.1-20.6 2.8-41.7 3.4-43.3.8-2.3 2.5-.2 2.5 3.1 0 1.8.4 4.8.9 6.7.5 1.9 1.4 6.2 2.1 9.5.8 3.3 1.9 7.2 2.7 8.7.8 1.6 1.3 6.2 1.3 11.5 0 4.9.5 10.4 1 12.3.6 1.9 1.3 7.8 1.6 13 .7 11.9 1.2 14.9 2.4 13 .5-.8 1.2-3.7 1.6-6.5 2.2-16.3 3.9-6.4 5.4 31 .6 15.9.8 29.8.5 30.8-.9 2.2.3 7.3 1.4 6.1.5-.5 1.6-4.5 2.5-8.9 1-4.4 2.4-9.8 3.3-12 .9-2.2 1.9-7.2 2.3-11 .5-3.9 2-10.6 3.5-15 4.2-12.2 4.8-14.6 5.6-20 .4-2.8 1.1-7.1 1.5-9.8.4-2.6 1.1-5 1.6-5.3 2-1.3 3.2 1.8 3.9 10.3 1.1 12.9 2.7 25.6 3.4 27.4.3.9 1.6 1.7 2.8 1.7 4.8 0 6.5 1.5 7.9 6.9.5 1.8.1 2.2-3.3 2.5-2.2.2-3.9-.1-3.9-.6 0-.6-1-.1-2.1 1.1-1.9 1.9-2.2 3.4-2.5 14.8-.2 7-.6 18.2-.9 25-.5 11.2-.4 12.3 1.4 13.9 2 1.9 4.1 1.4 4.1-.8 0-.7 1.2-2.6 2.7-4.2 1.4-1.5 3.7-5.2 5.1-8.2 1.3-2.9 2.6-5.1 2.9-4.8.3.3.5 4.9.5 10.3s.2 8.9.5 7.8c.3-1.1 1-2.6 1.6-3.4 1-1.2 2.3-5.5 9.3-33.1 1.5-5.8 3.8-13 5.1-16.1 1.2-3.1 2.3-6.8 2.3-8.2 0-3.7 6-19.8 7.1-19.1.5.3 1.6 2 2.3 3.7l1.4 3.2.1-3.2c.1-1.7-.3-3.4-.8-3.7-1.2-.8-.7-8.4.6-9.7.8-.8 1.5 1.7 2.7 8.8.9 5.4 2.1 11.5 2.7 13.5.5 2.1 1.4 8.9 1.9 15 .5 6.2 1.4 15.1 2 19.8 1.1 8.9.8 39.9-.4 41.8-.5.8-3.5 1-9.4.6-9.4-.6-14.7.4-14.7 2.7 0 1.1 2.5 1.6 10.9 2.1 6.7.5 11.4 1.3 12.2 2 1.2 1.4.8 8.1-1.5 27.8-1.9 16.1-3.9 24.6-8 34.5-2.1 5.1-4.3 12.7-3.7 13.2.3.3 1-.6 1.5-2.1.6-1.4 1.6-2.6 2.2-2.6.6 0 .9-.9.6-2-.3-1 .1-2.4.9-3.1.8-.6 1.4-1.9 1.4-2.9s.7-2.3 1.5-3c.8-.7 1.5-2.3 1.5-3.6 0-1.2.7-2.9 1.5-3.8.8-.8 1.5-2.1 1.5-2.8 0-.8.7-2.3 1.5-3.4.8-1 1.5-2.9 1.5-4 0-1.2.6-2.7 1.4-3.3 1.3-1.1 1.9-3.2 3.3-10.9.3-1.7.9-3.2 1.5-3.2.5 0 .6.5.3 1-.3.6-.1 2.5.6 4.3l1.2 3.3 6.2-3c3.7-1.8 7-4.2 8-5.9.9-1.5 2.1-2.4 2.7-2.1.8.5.9-.4.5-2.9-.3-2.1-.2-3.7.4-3.7.5 0 .8.3.7.7-.1.5.4 2.1 1.1 3.8.7 1.6 1.7 5.5 2.2 8.5.6 3 1.5 6.3 2 7.2.5 1 .9 2.8.9 4.1 0 1.3.4 3.7 1 5.3.8 2.5 5.3 27 6.6 35.9.2 1.6.6 3.6.9 4.4.5 1.1-1 1.3-8.2.8-15.5-.9-38.1 2.1-53.8 7.3-4.9 1.6-9.1 2.8-9.2 2.6-.2-.1.6-3.2 1.7-6.7s2.6-8.4 3.4-10.9c.8-2.5 2.6-8.6 4.1-13.5 1.5-5 3.1-10.1 3.5-11.5 1.8-5 6-24.1 6-27.2 0-1.8.4-5 .9-7 .5-2.2.5-3.6 0-3.2-.5.3-.9 1.3-.9 2.3 0 .9-.4 2.1-1 2.7-.5.5-1.4 3-1.9 5.4-2.7 12.8-11 38.8-15.2 47.4-1 2.2-1.9 4.3-1.9 4.6 0 1.3-13.2 25.5-14.5 26.5-1.6 1.3-6.5 9.1-6.5 10.5 0 .5-3 4.8-6.6 9.6-4.4 5.6-7 8.2-7.6 7.6-1.8-1.8-10.8 10.2-11.1 14.8-.1 1.7-.5 3-.9 3-.5 0-.8 1.1-.8 2.5 0 2.3-13.8 21-14.8 20-.5-.5 5.3-12.2 7.3-14.5.6-.8 1.5-2.3 1.8-3.3.4-.9 1.1-1.7 1.7-1.7.5 0 1-.9 1-2.1 0-1.5.4-1.9 1.6-1.5 1.3.5 1.5.2 1.1-1.4-.3-1.4 1.4-6 4.8-12.8 4.8-9.7 5.7-10.9 9.9-13.1 9-4.6 16.5-13.1 11.7-13.1-1 0-2.9.9-4.2 2.1-1.3 1.1-3.4 2.9-4.7 4-2.1 1.8-4.2 2.5-4.2 1.4 0-.3 1.3-4 3-8.3 1.6-4.2 5-14.2 7.5-22.2 6.2-19.6 5.9-19.1 13.3-21.3 4.1-1.3 6.2-2.4 6.2-3.4 0-1.2-.8-1.4-3.7-1-8.1 1.3-7.8 1.4-7.7-1.3.1-1.4 1.1-6.6 2.2-11.5 1.2-5 2.3-12.6 2.6-17 .4-5.8.3-6.9-.3-4-1.3 5.9-8.8 34.5-9.9 38-.6 1.6-3.2 9.5-5.7 17.5-4.5 13.7-5.4 16.2-9 24.4-.8 1.9-1.5 3.7-1.5 4 0 .3-2.7 6-5.9 12.8-3.2 6.8-6.6 13.9-7.4 15.8-2.2 4.8-9.6 18.3-10.8 19.5-.5.5-.9 1.7-.9 2.7 0 1-.4 1.8-.8 1.8-.5 0-1.6 1.7-2.5 3.7-.9 2.1-3.2 6-5.2 8.8-1.9 2.7-4.3 6.1-5.3 7.4-.9 1.3-2.3 3-2.9 3.7-.7.7-1.3 1.7-1.3 2.3 0 .5-.7 1.4-1.6 1.9-.9.5-1.6 1.3-1.6 1.8-.2 1.6-4.3 7.4-5.2 7.4-.6 0-.5-.5.2-1.2s1.2-2 1.2-2.9c0-.9.7-2 1.6-2.3.9-.4 1.4-.9 1.1-1.2-.3-.4.4-2.3 1.7-4.3 1.2-2 2.9-5.2 3.8-7.1.9-1.9 3.2-6.9 5.1-11 4-8.6 6.3-15.2 8.3-23 2.5-10.3 1.3-13.5-2-5.2-2.3 5.5-7.3 17-8.6 19.4-.5.9-2.8 5.2-5.1 9.5s-4.5 7.9-5 8.1c-.5.2-.9.9-.9 1.6 0 1.4-13.1 18.9-17 22.6-.3.3-3 3.4-6 7-6.4 7.6-6.9 8-9.5 8-1.5 0-1.6-.3-.7-.9.8-.4 1.6-2.7 1.9-5 .5-3.5.9-4.1 2.5-3.5 1.7.5 1.7.3-.4-2.1l-2.3-2.7-.3 3.1c-.3 2.9-.6 3.1-4.3 3.1-2.1 0-3.9.4-3.9 1 0 .5-1.8 1-4 1-3.3 0-4 .3-4 2s-.7 2-4 2c-2.2 0-4 .4-4 1s-4.7 1-12 1c-8.2 0-12 .4-12 1.1 0 .8-.4.9-1.3 0-.8-.6-1.7-.8-2-.4-.4.3-.9-.2-1.3-1.1-.3-.9-1.3-1.6-2-1.6-.8 0-1.9-1.1-2.4-2.5s-1.4-2.5-1.9-2.5c-1.5 0-4.1-9.3-7.4-27-1.1-5.7-8.8-42.8-9.6-46.5-.6-2.2-1.9-9.4-3.1-16-1.1-6.6-2.5-14-3-16.5-2.9-13.6-4.9-29.4-3.9-30.7.8-.9.8-2.1-.1-4.3-.7-1.6-1-3.7-.6-4.5.3-.9-.1-2.6-.8-3.8-.8-1.2-1.7-5.7-2.1-10-.9-9.4-1.8-9.4-1.6-.1.1 5-.3 7.2-1.6 8.6-1.6 1.8-1.5 2.2 1 7.2 2.1 4.1 2.7 6.7 2.7 11.6 0 6.1.3 8.8 3.5 27.6 2.6 15.8 1.3 18.1-2 3.5l-1.7-7.3-7.7-3.4c-4.2-1.9-8.5-3.9-9.6-4.4-13.2-6.1-38-12.9-40-10.9-1.1 1.1 1.9 11.2 5.6 19.3 1.1 2.4 3.8 3.9 9 5 3.7.8 6.2 3.4 9.8 10 4 7.6 7.1 18 7.8 26.5.5 5.7.3 6.9-1.1 7.4-1.1.4-1.6.1-1.6-.9 0-1.4-1.2-3.2-6-9.1-.6-.7-1-1.7-1-2.3 0-.5-.4-1-.9-1s-1.2-.9-1.6-2c-.5-1.7-.9-1.8-3.3-.8-1.5.7-3.9 2-5.3 2.9-2.2 1.6-2.7 1.6-4 .4-.8-.8-3.1-2.9-5.2-4.6-3.7-3.1-7.7-9.7-7.7-12.8 0-.9-1.1-2.8-2.5-4.3s-2.5-3.2-2.5-3.8c0-.6-.9-2.1-2-3.3-2.9-3.1-5-7.6-3.9-8.3 1.4-.8 1.1-1.9-1.7-5-1.4-1.6-3.5-4.6-4.7-6.8-3.9-6.9-4.4-7.6-6.6-10-2.4-2.6-7.3-12.4-13.2-26.4-4.6-11.1-6-15.6-15.3-47.7-.8-2.8-1.8-7.1-2.1-9.7l-.7-4.6 7.3-2.2c4.1-1.3 8-2.4 8.7-2.6.6-.2 1.2-1.2 1.2-2.3 0-2.8-1.7-3-8.5-1.1-3.3 1-6.6 1.9-7.4 2.1-1.8.5-2.8-3.7-3.7-16.3-.4-6.2-1.1-10.2-2-10.9-2.1-1.7-2.8 3.1-1.9 13.9 1 11.2 1 13.6 0 17.6-.6 2-.4 3.1.6 3.7 1.1.7 1.4 4.3 1.2 17.6-.1 18-1.1 37.7-1.9 40.5-.3 1-1.1 1.8-1.8 1.8-1.3 0-1.5-1.1-5-24.5-1.6-10.7-2.2-28.8-1.1-32.8.5-1.8.3-3.3-.4-4-1.3-1.3-1.4-16.1-.1-41 .5-10.9.5-18.9-.1-21-1-3.4.5-16.9 2.2-19.7.5-.8 1.6-2.8 2.3-4.4l1.4-2.9.7 4.4c.4 2.4 1.5 7.4 2.6 11.1 1.1 3.6 2 9.9 2 14 .1 7.7 1.5 18.6 1.8 13.5 0-1.5.8-4.4 1.6-6.4.9-2.1 1.9-6.4 2.2-9.6.5-4.7 1-6 2.7-6.7 3.6-1.4 5 1.1 4 6.7-1.2 5.9-.3 13.5 2.3 20.5 3.2 8.3 6.4 17.9 7.8 23.2.8 2.7 1.9 5.2 2.5 5.6.6.4 2.4 4.2 3.9 8.6 2.5 6.8 4.6 11.5 12 26.5 1.9 3.8 5 3.9 5.3.1.1-1.5.1-3.6.1-4.7-.1-1.1.3-3.8.8-6 .5-2.5.4-6.4-.2-10.3-.9-4.8-.8-7 .1-9.2 1.2-3 1.3-3 8.9-3 9 0 11.1 1.3 13 8 1.7 5.6 3.3 10.5 8.3 24.5 6.5 17.9 10.7 30 10.8 30.5 0 .3.4-.2.9-1s.4-7.4-.1-14.5c-1-15.5-.5-47.3 1.3-67.5 1.2-14.5 1.2-14.5-1.3-21.8-3-8.6-11.4-18.9-18.2-22.1-6.1-3-17.1-2.9-22.4.1-5 2.9-10.2 7.4-10.2 8.7 0 .6-.4 1.1-.9 1.1-1 0-4.1 5.6-4.1 7.4 0 .6-.9 2.2-2 3.6-1.9 2.5-2 2.5-2 .3 0-1.2.7-2.6 1.6-3.1 1.3-.7 1.4-1.3.6-2.8-1.1-1.8-1.1-1.8-1.2.3 0 1.3-.5 2.3-1.1 2.3-.7 0-.9-.9-.6-2.1.7-2.5-.1-4.9-1.6-4.9-.6 0-2.1 1-3.3 2.1-1.3 1.2-2.9 1.9-3.7 1.6-2.2-.8-3-8-1.3-11.4.8-1.5 1.7-3.6 2-4.6.7-2.4 2.4-2.1 2.9.5.2 1.3.3.7.3-1.2-.2-6.5 1.5-17 2.7-17 .7 0 2.4 1.5 3.8 3.3 3.4 4.1 13.1 9.1 16.4 8.3 1.3-.3 3-1.3 3.9-2.1.8-.8 1.9-1.5 2.5-1.5 2.1 0 7-8.2 9.5-16.1 1.4-4.4 2.6-8.7 2.6-9.5 0-.8.3-1.4.8-1.4 1.3 0 5.2 6.6 5.2 8.8 0 1.2.9 2.7 2 3.4 1.1.7 2 1.6 2 2 0 .4 1.4 2.7 3 5.1 1.7 2.5 3 5 3 5.6 0 .6 1.6 4.4 3.6 8.3 4 7.9 9.8 14.3 15.9 17.3l4.4 2.2c.2.2-.2.9-.9 1.8-.8 1-.9 1.5-.1 1.5 1.9 0 1.4 14.8-.5 16.7-1.3 1.4-1.7 1.4-2.5.2-.5-.8-.9-2-.9-2.8 0-.8-.6-1.1-1.6-.7-.9.3-1.9.6-2.3.6-.3 0-.8 2.2-.9 5-.1 2.7.2 5 .7 5 .4 0 1.2 2.8 1.5 6.2.4 3.4 1.4 7.4 2.2 9 .8 1.5 1.7 5.6 2 9 .3 3.5 1.5 8.8 2.5 11.9 1 3 1.9 6.2 1.9 7.1 0 1.6 2.5 10.5 4.1 14.5.5 1.3 1.4 2.3 2 2.3.8 0 1-2.2.5-7.8-1.7-20.4-1.9-31.3-.6-33.7 1.4-2.6.7-9.8-1-10.3-.5-.2-1-1.6-.9-3 0-1.5.3-2.1.6-1.5 1.1 2.9 2.2 1 2.9-4.8.6-5.5 2.3-8.3 4-6.6.8.8 4.4 17.7 4.4 20.8 0 1.4.9 4.6 1.9 7 1.1 2.4 2.3 6.6 2.6 9.4.9 6.1 2.1 8.8 2.9 6.5.3-.8.7-5.3 1.1-10 2.6-38.9 4.1-54.3 5.4-56.9 1.4-2.6 1.4-11.8 0-12.6-.5-.4-1.9.1-3 1.1-1 .9-1.9 1.3-1.9.8s-.5-.2-1 .6-1.4 1.5-2.1 1.5c-.6 0-1.7 1.3-2.3 3l-1.3 3-.7-3.9c-.5-2.4-.3-4.3.3-4.9.6-.6 1.1-2.6 1.1-4.3 0-1.8.4-3.5.9-3.8.4-.3 1.1-2.5 1.5-4.8.4-2.4 1.4-5.3 2.2-6.6 1.6-2.4 5.2-2.9 7.3-1 1.1 1 1.4 1 1.8 0 .8-2.1 7.1-1.5 8.3.9.9 1.6 2 2 4.8 1.8 2-.2 4.3-.7 4.9-1.2.9-.6 1.5-.4 2 .9.4 1 .2 1.9-.5 2.2-.7.2-1 1.3-.7 2.5.6 2.7-.6 4.7-2.9 5.1-1 .1-2.2.9-2.7 1.7-.8 1.2-1 1.2-1.8-.1-4.1-6.2-4.5 21.5-.9 50.4 1.5 11.2 3.2 13.4 4.3 5.4.8-5.9.8-6.1 3-13.8 2.2-7.5 4.4-18.9 5.5-28.5.5-4.4 1.4-10.3 2-13 .6-2.8 1.3-7.7 1.6-11 .3-3.2 1-6.8 1.5-7.8.6-1 .8-3.1.4-4.6-.4-1.9 0-3.5 1.4-5.3 1.1-1.4 1.8-2.8 1.5-3.1-.3-.3.4-.8 1.6-1.2 1.2-.4 2.8-2.3 3.6-4.6 2.9-7.2 3.6-5.4 3.9 10.2.1 3.6.6 7.9 1.2 9.5.6 1.6 1.6 4.8 2.2 7 .7 2.6 2.1 4.8 3.7 5.9 4.8 3.1 5.6 7 3.8 19.2-.9 6.2-1.4 13.2-1 16.4.3 3.4 0 8.5-1 12.9-1 5.1-1.2 8.1-.5 10.3.5 1.8 1.5 5.2 2.2 7.7 1.1 4.3 1.2 4.4 2.2 2 .6-1.5 1.1-13.6 1.2-30 .1-18.1.5-28.2 1.2-29.5 1.1-2 2.4-13.9 4.3-39.5.4-6.3 1.7-16.7 2.8-23 2.9-16.1 4.4-26.3 5.3-35 .4-4.1 1.5-12.5 2.4-18.5.9-6.1 2-15.1 2.4-20 1.2-12.6 2.9-18.4 5.1-17 .4.3.7-1 .6-2.8 0-2.1.3-3.1 1.2-3 .7.2 1.2-.8 1.2-2.6 0-2.6.3-3 3-2.9 2.2.1 3 .6 3 1.8zm340.5 1c.4.6-.7 1-2.7.9-2.7 0-3-.2-1.3-.9 2.7-1.2 3.3-1.2 4 0zm-751.3 3.5c.9 1.7 1.5 4 1.2 5.2-.5 2-.8 1.8-4-1.7-1.9-2-3.4-4.5-3.4-5.4 0-2.8 4.2-1.5 6.2 1.9zm742.5-1.9c-.3.3-1.2.4-1.9.1-.8-.3-.5-.6.6-.6 1.1-.1 1.7.2 1.3.5zm-6.7.8c0 .2-1.1.6-2.5.8-1.3.3-2.2.1-1.9-.3.5-.9 4.4-1.3 4.4-.5zm4.8 3.7c-.3.8-.7.3-1.1-1-.4-1.7-.3-2.1.5-1.3.5.5.8 1.6.6 2.3zm-22.5-.4c-.7.2-1.9.2-2.5 0-.7-.3-.2-.5 1.2-.5s1.9.2 1.3.5zM424 474c0 .5-.4 1-1 1-.5 0-1-.5-1-1 0-.6.5-1 1-1 .6 0 1 .4 1 1zm2.5 4.1c-.4 1.3.2 2.7 2.1 4.4 2.6 2.4 5.1 3.4 4 1.6-.6-.9 1.5-2.1 3.6-2.1 1.9 0-2.6 5.7-9.1 11.4-1.8 1.7-2.1 1.7-1.5.3.3-1 .1-1.7-.5-1.7s-1.1-.9-1.1-2-.7-2-1.5-2-1.5-.6-1.5-1.4c0-.8-.8-2.8-1.7-4.6-1.7-3-1.7-3.1.2-4.6 1.1-.8 2.8-1.3 3.8-1 .9.2 1.7 0 1.7-.6 0-.5.5-.6 1-.3.6.4.8 1.5.5 2.6zm8.5-1.7c0 .3-.4.8-1 1.1-.5.3-1 .1-1-.4 0-.6.5-1.1 1-1.1.6 0 1 .2 1 .4zm735 6c0 .3-.4.8-1 1.1-.5.3-1 .1-1-.4 0-.6.5-1.1 1-1.1.6 0 1 .2 1 .4zm-7.3 14.2c-.3.3-1.2.4-1.9.1-.8-.3-.5-.6.6-.6 1.1-.1 1.7.2 1.3.5zm-661.7 4c0 1.7-9.7 13.1-10.5 12.3-.5-.6 8.9-12.9 9.8-12.9.4 0 .7.3.7.6zm112.6 9.6c-1.1 1.5-1.6 1.8-1.6.7 0-1.6 2.1-4.2 2.8-3.4.2.2-.3 1.4-1.2 2.7zm-108.6-.8c0 1.8-2.7 3.9-4 3.1-.7-.4-.7-1.2 0-2.6 1.2-2.2 4-2.6 4-.5zm720.5 16.6c.3.5.1 1-.4 1-.6 0-1.1-.5-1.1-1 0-.6.2-1 .4-1 .3 0 .8.4 1.1 1zM1001 536c0 .5-.5 1-1.1 1-.5 0-.7-.5-.4-1 .3-.6.8-1 1.1-1 .2 0 .4.4.4 1zm206.5 1c-.3.5-1 1-1.6 1-.5 0-.9-.5-.9-1 0-.6.7-1 1.6-1 .8 0 1.2.4.9 1zm-299.3 2.5c0 .5-.5 1.1-1.1 1.3-.6.2-1.1-.4-1.1-1.3s.5-1.5 1.1-1.3c.6.2 1.1.8 1.1 1.3zM1110 544c0 .5-.4 1-1 1-.5 0-1-.5-1-1 0-.6.5-1 1-1 .6 0 1 .4 1 1zm117 4c0 .5-.4 1-1 1-.5 0-1-.5-1-1 0-.6.5-1 1-1 .6 0 1 .4 1 1zm-754.8 30c-.4 7.6-.2 9 1.1 9 .8 0 1.8-.8 2.2-1.8 1.4-3.3 2.4 3.4 1.5 10.5-1.2 9.7-1.2 24.7-.1 32.8.6 3.8 1.5 11.2 2 16.2.6 5.3 1.6 10.2 2.5 11.5.9 1.2 1.6 4.3 1.6 6.8.1 4.2.2 4.4 1.5 2.6.8-1.1 1.5-4.1 1.5-6.6s.7-5.5 1.5-6.6c.8-1 1.5-2.9 1.5-4.2 0-2.3 2.8-9.6 5.5-14.2.8-1.4 2.2-4.1 3.2-6 1-1.9 2.1-3.7 2.6-3.8.4-.2.7-1 .7-1.8 0-2 1.8-1.7 2.4.3.5 2.1 1.9 9.6 3.6 20.3 2.2 13.8 4.2 17.6 5.5 10.2.6-3.9 2.5-7.8 2.5-5.4 0 .7.5 1 1 .7.6-.3 1-1.4 1-2.3 0-1 1.3-4.2 2.8-7.2 1.6-3 3.2-7.3 3.6-9.5.4-2.2 1.6-5.5 2.7-7.3 1-1.8 1.9-4 1.9-4.9 0-.8.8-2.7 1.8-4.1 1-1.5 2.2-3.6 2.6-4.6 1.5-4.4 2-.5 3.1 26.9.4 7.9 1 13.2 1.7 13.6.7.5.9 3 .5 7.6-.4 3.9 0 12.7.9 20.8.9 7.7 1.7 16.2 1.8 19 .4 8.9.5 9.5 2 8.9.8-.3 1.6-2.8 2-6.1.6-4.9 3-13.3 9.7-33.6 1-3.1 1.9-7.9 1.9-10.6 0-3.5.4-5.1 1.6-5.5 1-.4 1.4-1.6 1.3-3.3-.4-3.7 1.1-10.3 2.7-12.8.8-1.1 1.4-3.1 1.4-4.6 0-4.1 1.2-8.9 2.1-8.9.5 0 .9 3.5.9 7.7 0 4.3.7 15.7 1.5 25.3 1.8 21.4 1.9 30.1.3 33.5-.9 2.1-.9 2.8.1 3.5 1.1.6 1.2 5 .6 22.6-.4 12.1-.7 26.8-.6 32.9 0 10.1-1.2 22.3-3.8 38-.5 3.3-1.2 8-1.6 10.5-1 8.4-2.3 15.5-5 27.5-4.9 22.4-5.6 25-7.9 31-.8 2.2-1.5 5.2-1.6 6.6 0 1.4-.3 2.9-.7 3.3-.4.3-.8 1.2-.9 1.9-.6 4-6.2 22.3-7.2 23.7-.2.2-.7-.2-1.2-1s-1.2-1.2-1.5-.9c-.9.9.6 4 1.6 3.3 1-.6 1.1.2.3 3.4-1 3.6-5.5 2.6-7.3-1.6-.9-1.9-2.2-3.2-3.3-3.2-1.6 0-1.8-1.1-2-11.8-.2-14.2-.3-14.8-2.1-44.2-2.4-36.1-3.7-52.5-5.3-64.6-.8-6.1-1.4-17.4-1.4-25.2 0-10.1-.3-14.2-1.2-14.2-1.3 0-.6 48.9 1.2 81.2.5 9.7 1 25.6 1 35.3.1 9.7.8 21.7 1.5 26.7 1 6.5 1.1 9.7.4 11.1-.6 1-1.4 5.8-1.9 10.6-.5 6.4-.8 7.3-.9 3.6-.1-5.4-2.1-10.2-2.1-5.3 0 6.1-2.9 3.1-3-3.2-.1-2.9-4.2-8-6.5-8-.8 0-1.5.5-1.5 1.1 0 .5-.5.7-1.2.3-.9-.6-.9-.9 0-1.2 1.8-.6 1.4-2.2-.5-2.2-1.7-.1-7.3-7.6-7.3-9.8 0-.6-.6-1.5-1.3-1.9-.8-.4-2.1-2.2-2.9-3.8-4.3-8.2-5.8-10.9-7.2-12.4-.9-.9-1.3-2.6-1-3.8.3-1.1.1-2.4-.5-2.7-.6-.4-1.1-.3-1.1.3s-.7.8-1.5.5c-1-.4-1.3-1.4-.8-3.2.4-1.7.2-2.3-.6-1.8-.6.4-1.4 0-1.7-1.1-.3-1-1-2.7-1.5-3.8-1.3-2.9-6.7-20.2-7.4-23.9-.4-1.7-1.5-6-2.5-9.6-3.4-12-4.2-15.5-5.1-21-5.5-34.3-7.1-52.6-6.6-74.5.5-18.9 1.8-32.2 3.8-37.2.9-2.4.1-8.3-1.1-8.3-.4 0-1.2 2.6-1.9 5.7-1.7 7.7-5.1 18.5-6.4 20.1-.7.9-.5 1.8.7 3 1.4 1.7 1.4 2 0 3.8-1.5 1.8-1.5 1.8-1.1-.9.6-3.5-.9-4.4-2.4-1.5-2 3.9-8.3 13.3-9.1 13.6-.5.2-.8.9-.8 1.6 0 .7-.9 2.1-2 3.1s-2 2.2-2 2.6c0 1.4-7 11.3-8.6 12.2-1.4.8-1.6.6-1-.9.4-1 1.2-4.4 1.8-7.4.5-3 1.4-5.9 1.9-6.5.5-.5.9-1.8.9-2.9 0-1.1.4-3.3.9-5 2.1-6.6 5.5-18.3 6.3-21.6 1-3.8 1.1-4.3 5.8-21 1.7-6.3 4.5-16.5 6-22.5 5.4-20.8 14.7-48.9 18.5-56 4.6-8.5 6.1-10.5 7.6-10.5 1.3 0 1.5 1.3 1.1 9zm789.8-3.5c.7.8.9 1.5.6 1.5-.4 0-1.4-.7-2.2-1.5-.9-.8-1.1-1.5-.6-1.5.5 0 1.5.7 2.2 1.5zm-25.6.1c-.7.3-.9 1.5-.6 2.7.3 1.2.1 1.9-.3 1.4-1.7-1.6-1.5-4.7.3-4.6.9 0 1.2.3.6.5zm33.6 2.4c0 .5-.2 1-.4 1-.3 0-.8-.5-1.1-1-.3-.6-.1-1 .4-1 .6 0 1.1.4 1.1 1zm-31 16c0 .5-.4 1-1 1-.5 0-1-.5-1-1 0-.6.5-1 1-1 .6 0 1 .4 1 1zm-259.6 19c1.5 2.7 3.1 5.2 3.6 5.5.6.4 1 1.5 1 2.7 0 1.1.6 3.2 1.4 4.6.7 1.5 1.9 4.3 2.6 6.2.6 1.9 2.2 6.4 3.5 10 1.2 3.6 2.5 8.2 2.8 10.3.3 2 1.2 4.4 2 5.2 1 .9 1.7 5 2.2 12.2.4 5.9 1.1 11.6 1.7 12.6.8 1.6 1.6 6.1 3.5 20.4.3 2.6.1 4.3-.5 4.3-.5 0-3.3-1.6-6.2-3.5-4.9-3.3-8-4.4-8-2.8 0 1.1 3.2 4.3 4.3 4.3.6 0 2.5 1.1 4.3 2.5 1.8 1.4 3.6 2.5 4.1 2.5 1.9 0 4.3 6 4.3 10.8 0 6 .7 8.2 2.6 8.2.9 0 1.5-1.3 1.6-3.8 0-2 .2-4.2.3-4.7.2-.6.3-1.4.4-1.9 0-.5.8-.3 1.6.4 2.6 2.2 3.7.1 1.7-3.3-1.7-2.8-1.8-4.3-1.1-11.2.4-4.4.8-9 .8-10.3.1-1.2.5-2.2 1-2.2 1.9 0 3.4 25.7 3.5 60 .1 31.2 1.1 28.2-8.8 26.1-2.7-.6-5.1-.9-5.4-.7-1.4 1.5.8 22.4 2.5 24.2.8.8 3.1 1.4 5.2 1.4 2 0 4.1.4 4.7 1 .5.5.6 5.5.2 12.7-.4 6.8-.3 12.2.2 12.7.6.6 1.1.4 1.4-.5 2.6-8.4 4.9-96.1 3-113.4-.7-5.5-1.4-14-1.8-18.8-.3-4.9-.8-9.2-1-9.6-.7-1.1-2.8-30.2-2.3-30.8.3-.2 1.8.2 3.4 1.1l3 1.5.6 16.1c.4 8.8 1.1 16.9 1.6 17.9.6 1 1.2 9.9 1.5 19.9.2 10 .9 18.9 1.5 20 .7 1.2 1.1 9.1 1.2 19.7 0 20.2.7 21.4 5.1 8.9 1.5-4.3 3.8-10.4 5.2-13.4 1.3-3 3.2-8.2 4.1-11.5 1-3.3 2.6-7.8 3.6-10s2.3-6.3 2.9-9c.6-2.8 1.8-6.5 2.6-8.3 1.6-3.5 4.1-11.5 5.2-17.1 1-4.9 3.2-5.2 3.3-.4.3 16.7-.3 43.8-1 45.6-.5 1.3-1.2 5.4-1.6 9.2-.7 7.1-3.2 21.2-4 22.5-.3.4-.9 3.9-1.5 7.6-1.3 9.1-2.8 14.4-4.2 14.4-.6 0-5-1.6-9.8-3.5-4.8-1.9-10.1-3.8-11.8-4.1l-3-.6-.4 9.3c-.5 10.4.2 12.9 3.4 12.9 1.2 0 3.5.4 5.2.9 22.2 6.8 25.3 7.9 26 9.7.2.6-1.6 8.8-4 18.3-4.3 16.9-7.5 24.7-12.1 29.7-1.3 1.4-2.3 2.7-2.3 3 0 .9-11.6 16.9-17.7 24.5-3 3.8-5.5 8.1-5.9 10-.6 3.3-.2 3 8.2-5.6 4.9-5 11.6-12 14.9-15.8 3.2-3.7 6.6-6.7 7.5-6.7 1.8 0 8.2-10 13.3-20.8 1.9-4.1 3.8-6.9 4.2-6.3.3.6.4 1.5.1 2-.3.5 0 1.4.8 2 1.1.9 1.5.7 2-1.1.3-1.3.6-3.5.6-5.1 0-1.5.5-2.7 1-2.7.9 0 1.1.9 1.4 6.2.1 1 .5 1.8.9 1.8h1.6c1 0 2.6-6.5 2.2-9.2-.3-2.2 1.7-3.2 3.4-1.8 1.2 1 1.5.9 1.5-.9 0-1.2-.6-2.1-1.5-2.1-.8 0-1.5-.5-1.5-1 0-.6.5-1 1-1 .6 0 1-.9 1-2s.5-2 1-2c.6 0 1 .5 1 1.2 0 3.2 2.1-1.4 3.1-6.7 1.3-7.3 4-13.4 7.5-16.6l2.6-2.4-.7 8.6c-.5 6.1-.3 8.9.5 9.4 1.3.8 6.3-4.2 5.5-5.5-.6-.9 2.1-7 3-7 .9 0 2.8 4.5 3.2 7.5.2 1.6.6 5.9.8 9.5.2 3.6.9 13.5 1.5 22 1.7 21 1.5 30.6-.4 32.6-.9.8-1.6 2.9-1.6 4.5s-.5 2.9-1.1 2.9c-.6 0-.9.9-.6 2 .3 1.1-.3 3-1.4 4.4-1.1 1.3-1.6 3.1-1.3 4 .3.9.2 2.2-.4 2.9-.5.6-1.3 2.6-1.6 4.4-.4 1.7-1.4 3.7-2.2 4.3-.8.8-1.2 2.1-.8 3.6.4 1.5.2 2.4-.5 2.4-.6 0-1.1.9-1.1 1.9 0 1.1-.7 2.6-1.5 3.5-.8.8-1.5 2.1-1.5 2.9 0 .8-.7 2-1.5 2.7-.8.7-1.2 1.6-.9 2.1.3.5-.2 1.9-1 3.1-.9 1.2-1.6 3-1.6 3.9 0 .9-.7 2.2-1.5 2.9-.8.7-1.5 2.1-1.5 3.1 0 1.1-.4 1.9-.8 1.9s-1.4 2.1-2.1 4.7c-2.8 9.7-11.1 24.8-11.1 20.2 0-.8.8-4.6 1.9-8.4 1-3.9 2.1-9 2.5-11.5.5-4.1.5-4.3-.9-2.6-.8 1.1-1.5 3.1-1.5 4.5s-.7 3.5-1.5 4.5c-.8 1.1-1.5 2.8-1.5 3.8 0 .9-.6 3.2-1.4 5-.8 1.8-2.2 6-3.2 9.3-2.4 8.4-4.9 13.7-8.7 18.7-1.8 2.4-4.4 6.3-5.7 8.8-1.4 2.5-3.5 5.4-4.7 6.5-2.4 2.1-3.2 4.2-1.2 2.9.6-.3.3.5-.6 2-1 1.4-2.2 2.6-2.7 2.6s-.7.4-.3.9c.3.6-.7 2.5-2.3 4.3-1.6 1.8-3.4 4.3-4.1 5.6-.7 1.2-1.6 2-2 1.7-.5-.3-1.2.6-1.5 2-.6 2.2-1.2 2.5-5.1 2.5-2.5 0-4.5.4-4.5 1 0 .5.6 1 1.4 1 .7 0 1.6.9 1.9 2 .6 2.3-2.3 5.6-6 7.1-1.4.5-2.3 1.7-2.3 2.9 0 2-1 2.3-5.5 2.1-1.1 0-1.4.2-.7.5 1.2.5.7 1.4-4.8 8.1-.6.7-1 1.7-1 2.3 0 .5-.4 1-1 1-.5 0-1.9 1.9-3.1 4.3-1.2 2.3-2.5 4.4-2.9 4.7-.4.3-.9 1-1.1 1.7-.8 2.5-33.5 36.6-40.3 42.1-1.7 1.4-2.2.3-.7-1.3 1.8-1.8 9.9-19 12.5-26.5 1.5-4.1 3.6-8.8 4.7-10.3 1.2-1.7 1.9-3.7 1.6-4.9-.3-1.1-.2-2.8.3-3.7 1.4-2.7 9-24.5 9-25.9 0-2.1 5.8-11.7 9-14.8 1.6-1.6 3-3.4 3-3.9 0-.6 1-2.1 2.3-3.5 1.3-1.4 3.8-4.8 5.7-7.5 1.8-2.8 3.6-5.2 3.9-5.5.3-.3 1.4-1.9 2.3-3.5 1.5-2.8 8-13.8 10.3-17.7 13.4-22.2 19.1-32.7 29.9-54.6 1.1-2.4 3.8-6.4 5.9-8.8 3.2-3.6 3.8-4.9 3.2-7.3-.4-2.1-.2-3 1-3.5 1-.4 1.5-1.5 1.3-2.9-.1-1.3.6-3.2 1.6-4.2 1.1-1.1 1.6-2.7 1.3-4.2-.3-1.5.1-2.7.9-3 .9-.3 1.4-2.1 1.4-4.8 0-2.4.5-4.5 1.1-4.7.7-.2 1.2-2.3 1.2-4.6 0-2.5.4-4 1.1-3.9.7.1 1-1.3 1-3.8-.1-2.5.3-4.3 1.2-4.8.8-.4 1.4-1.8 1.4-3.1 0-3-2-8.6-3-8.6-.4 0-1.5 3.3-2.5 7.2-.9 4-2 8.1-2.6 9-.5 1-.9 2.5-.9 3.4 0 .9-.7 3-1.4 4.7-.8 1.8-1.6 4.5-1.8 6.2-.2 1.8-.8 2.9-1.5 2.7-.9-.1-1.3 1-1.3 3.4 0 2.1-.4 3.3-1 2.9-.5-.3-1 .3-1 1.5 0 2.3-5.8 18.6-9.7 27-1.4 3-4.3 9.2-6.4 13.7-2.2 4.5-3.9 8.7-3.9 9.2 0 .6-.4 1.1-1 1.1-.5 0-1 .6-1 1.4 0 .8-.3 1.6-.7 1.8-.5.1-2.2 3-3.9 6.3-4.6 9-5.8 10.9-7.1 11.8-.7.4-1.3 1.3-1.3 2 0 .6-1.5 3.4-3.3 6.2-1.9 2.7-4.7 7-6.3 9.4-1.6 2.4-3.3 5.1-3.9 5.9-2.2 3.4-13.8 19.8-14.7 20.7-.6.6-.7-.4-.4-2.9l.6-4-2 2.4c-1.1 1.3-2 2.9-2 3.7 0 .7-.4 2.1-.9 3.1-.5.9-1.7 3.4-2.6 5.5-2.3 5.2-7.3 12.6-9.6 14-1.1.7-1.9 1.5-1.9 1.9 0 .5-.8 1.6-1.7 2.6-1 1-4.1 4.4-7 7.5-3.1 3.4-5.4 5.2-5.6 4.4-.4-.8-.6-.7-.7.3-.1 2.3-7.9 10.9-8 8.7 0-.9.4-1.7.8-1.7s2.1-2.6 3.7-5.8c1.6-3.1 4-7.4 5.2-9.4 1.3-2.1 2.3-4.4 2.3-5.2 0-.7.7-1.9 1.5-2.6.8-.7 1.5-2.1 1.5-3.1 0-1.1.5-1.9 1-1.9.6 0 1-.5 1-1.1 0-.5 2.2-5.6 4.8-11.2 2.7-5.6 5.4-11.8 6.2-13.7.7-1.9 2-4.4 2.7-5.5.7-1.1 1.3-2.9 1.3-4 0-1.2.4-2.5.9-3 1-1.1 9.6-25.8 13.6-39 4.7-15.5 5.3-17.8 7.4-27 1.2-5 2.8-11.3 3.6-14 1.6-5.7 2.9-24 1.9-27.9-1-4.2-2.1-3-2.1 2.6-.1 6.6-1.6 16.5-2.7 17.5-.5.4-.6-2.8-.3-7.2 1.6-19.8 2.9-53.1 2.3-59.3-.3-3.7-1.2-10.1-2.1-14.2-2.6-12.2-3.6-20.3-2.9-23.9.8-4.6-1.5-24.3-3-25.6-1.2-.9-4.2-13.7-7.1-30-1.6-8.5-3.6-18.2-6.9-33.5-1.4-6.4-2.3-12.5-2-13.6.3-1.1-.4-3.6-1.5-5.5s-2.4-5.7-2.9-8.4c-1.8-9.3-5.2-24.7-6.7-30.7-2-7.4-2.1-18.1-.5-31.8 1.3-10.9 2.3-15 3.8-15 .5 0 2.1 2.2 3.6 5zm-267.7 1.2c-.3.8-.6.5-.6-.6-.1-1.1.2-1.7.5-1.3.3.3.4 1.2.1 1.9zm571.3.5c0 2.2-.2 2.5-1 1.3-1.3-2-1.3-4 0-4 .6 0 1 1.2 1 2.7zm-2 5.4c0 1.7-.4 2.8-1 2.4-.5-.3-.6-1.3-.3-2.1.3-.9 0-2-.8-2.5-1.1-.7-1.1-.9.4-.9 1.2 0 1.7.8 1.7 3.1zm-3-.1c0 .5-.7.7-1.5.4-.8-.4-1.5-.8-1.5-1 0-.2.7-.4 1.5-.4s1.5.4 1.5 1zm-637 3.1c0 1.1.5 2.9 1.1 4 .6 1.2 1.3 4.1 1.6 6.6.2 2.5 1.3 6 2.3 7.8 1 1.8 2.2 5.5 2.6 8.1.4 2.7 1.8 7.3 3.2 10.2 1.6 3.5 2.1 5.7 1.5 6.3-.5.5-4.8.9-9.4.7l-8.4-.3-.3-8.5c-.4-9.3 1.3-28.6 2.9-33.8 1.2-3.6 2.9-4.3 2.9-1.1zm-25 .9c0 .5-.7 1-1.5 1s-1.5-.5-1.5-1c0-.6.7-1 1.5-1s1.5.4 1.5 1zm341.5 16c.3.5.1 1-.4 1-.6 0-1.1-.5-1.1-1 0-.6.2-1 .4-1 .3 0 .8.4 1.1 1zm8.5 7.6c0 3.4-1.3 4.6-2.3 2.1-.7-1.9.4-6.8 1.4-6.1.5.3.9 2.1.9 4zm-267 2.1c-1.1 1.7-1.1 1.7-.6 0 .3-1 .6-2.4.7-3 0-.9.2-.9.5 0 .3.7 0 2-.6 3zm-151.1-1.2c4-.9 6.1.4 5 3-.6 1.7-.8 1.7-.8.2-.1-1.3-1-1.7-3.5-1.7-1.9 0-4.2-.3-5.2-.7-1.3-.5-1.6-.3-1.1 1 .7 1.8-.1 4.7-1.2 4.7-1 0-.7-5.4.4-6.6.7-.8 1.4-.9 2.2-.2.7.5 2.6.7 4.2.3zm629.6 3.2c2.5 4.6 7.9 19.3 7.2 19.9-.2.2-1.8-2.1-3.6-5.1-2.1-3.5-3.8-5.2-4.7-4.8-1.1.4-1.4-.4-1.4-3.3 0-2.2-.4-5.3-.9-7.1-.8-2.7-.6-4.3.5-4.3.1 0 1.4 2.1 2.9 4.7zm-168.5 8c0 1.3-.6 2.3-1.4 2.3-1.2 0-1.5-3.7-.7-7 .3-1.3 2.1 2.7 2.1 4.7zm-39.5-2.6c.4.6 1.3 3.6 2 6.7 1.3 5.4 1.3 5.7-1 8l-2.3 2.3-.6-6.3c-.9-9.7-.1-14.1 1.9-10.7zm95.9 6.5c1 2.6.7 8.9-.3 7.8-1.5-1.4-2.6-9.4-1.3-9.4.5 0 1.3.7 1.6 1.6zm-56.5 7.9c.1 1.7-.1 1.7-.9.5-.5-.8-.9-2.6-.9-4 0-2.3.1-2.3.9-.5.5 1.1.9 2.9.9 4zm52.1 2.5c0 .5-.4 1-1 1-.5 0-1-.5-1-1 0-.6.5-1 1-1 .6 0 1 .4 1 1zm-89 2c0 .5-.4 1-1 1-.5 0-1-.5-1-1 0-.6.5-1 1-1 .6 0 1 .4 1 1zm-2.5 1.9c.3.5.1 1.2-.5 1.6-.5.3-1-.1-1-.9 0-1.8.6-2.1 1.5-.7zm4.5 8c0 4.5-2.1 2.8-2.2-1.8-.1-1.7-.5-3.1-1-3.1s-.6-.5-.2-1.2c1.2-1.8 3.4 2.1 3.4 6.1zm-5.8-.7c-.6.6-1.5.9-1.8.5-.4-.3-.4-1.4 0-2.3.5-1.3.9-1.5 1.8-.6s.9 1.5 0 2.4zm92.5 1c-.3.8-.6.5-.6-.6-.1-1.1.2-1.7.5-1.3.3.3.4 1.2.1 1.9zm-95 8.4c-.3.3-1.2.4-1.9.1-.8-.3-.5-.6.6-.6 1.1-.1 1.7.2 1.3.5zm7.3 2.4c1.3.9 1.3 1 0 1-.8 0-2.2-.5-3-1-1.3-.9-1.3-1 0-1 .8 0 2.2.5 3 1zm-5 1c0 .5-.2 1-.4 1-.3 0-.8-.5-1.1-1-.3-.6-.1-1 .4-1 .6 0 1.1.4 1.1 1zm-373 8.1c1.3 6 .4 9.9-2.5 9.9-1.2 0-1.5-1.6-1.5-7.4 0-12.5 1.5-13.4 4-2.5zm381.4-5.5c.5 1.4.4 1.5-.9.4-1.7-1.4-1.9-2-.6-2 .5 0 1.2.7 1.5 1.6zm-15.7 1.6c-.3.8-.6.5-.6-.6-.1-1.1.2-1.7.5-1.3.3.3.4 1.2.1 1.9zm149.1 3.5c-.1.5 1.7 2.8 4 5.3s4.2 5.1 4.2 5.7c0 .7.3 1.3.8 1.3.7 0 2 2.6 7 14 1.3 3 2.8 6.2 3.3 7.2.4.9 1.1 3.9 1.5 6.8.5 3.9 1 5 2.3 4.8 1.3-.3 1.6-1.8 1.5-9.1-.1-5.9.2-8.7 1-8.7 1.5 0 3.9-5.7 3.2-7.5-.3-.8-.1-1.7.5-2.1.6-.3.8-1.1.6-1.7-.2-.7.1-2.1.7-3.2.9-1.8 1.1-1.6 1.8 2 .9 5.3 4.5 18.3 5.5 19.8 1 1.7 2.1-2.6 2.2-9.2.1-3 .3-5.2.6-5 .4.5 1.1 10.3 2 28.2.5 9.9-.5 35.6-1.4 35.5-2.4-.2-4.1.4-4.1 1.6 0 .8-.7 1.6-1.5 2-.8.3-1.5 1.2-1.5 2.1 0 .8-.6 1.5-1.2 1.5-1.9-.1-6.8-4.7-6.8-6.3 0-.8-.9-1.7-1.9-2-1.3-.3-2.2-1.7-2.6-4.3-.8-4.6-3-8.4-4.8-8.3-.9 0-.9.2.1.6 2.6 1 1.3 4.9-2.3 6.9-1.9 1-3.5 2.3-3.5 2.9 0 .5-.5.3-1-.5-.7-1-1 .9-1 6.3 0 6.9-.3 8-2.7 10.7-1.4 1.7-2.9 3-3.2 3-.3 0-.7-11.8-.9-26.3-.4-27.6-.6-33.3-1.8-43.5-.5-5-.4-6.6.7-7.3 1-.7 1.1-1.1.2-1.7-.6-.4-1.6-5.1-2.2-10.4-1.3-11.9-1.3-11.8-.1-11.8.6 0 .9.3.8.7zM960 707c0 1.1-.4 2-.9 2s-.7-.9-.4-2c.3-1.1.7-2 .9-2 .2 0 .4.9.4 2zm-381.7 19c.9 3.5 1.1 6.9.6 10.3-.6 3.8-.5 5.5.6 7.1.8 1.1 1.5 3 1.5 4.3 0 1.2.6 2.8 1.3 3.5 1.3 1.4 4.9 17.7 4.1 19-.3.4-2.1 1-4.2 1.4-2 .4-4.4 1-5.2 1.4-.8.4-2.7 1-4.1 1.3l-2.5.6.7-5.2c.5-2.8 1.3-8.6 1.9-12.7.5-4.1 1.4-8.9 1.8-10.5.8-3 .7-7.3-.4-15.3-.3-2.3-.3-6.4.1-8.9.8-5.5 1.7-4.6 3.8 3.7zm16.4-3.8c-.3.8-.6.5-.6-.6-.1-1.1.2-1.7.5-1.3.3.3.4 1.2.1 1.9zm.3 12.3c0 .7-.5 1.5-1 1.7-.6.2.8 2.1 3.1 4.3 3.3 3.2 4 3.6 3.4 1.8-.5-1.8-.3-2.2.9-1.7 1.2.5 1.6-.1 1.7-2.2.1-2.9.1-2.9.8-.4.5 1.4 1.8 4.5 2.9 6.9 1.2 2.4 2 4.6 1.8 5-.2.3.5 1.9 1.5 3.6 3.5 5.9 6.9 12.8 6.5 13.2-.3.3-2.6.6-5.3.7-2.6.2-8.4.7-12.7 1.1l-7.9.8.6-15.9c.7-16.7 1.4-21.7 2.8-20.8.5.3.9 1.1.9 1.9zm486.5 14.5c-.4 1.2-.9 1.9-1.2 1.7-.3-.3-.2-1.5.2-2.7.4-1.2.9-1.9 1.2-1.7.3.3.2 1.5-.2 2.7zm-6.5 7.2l1.9 4.2.7-2.9.8-3 .7 3c.6 2.7.7 2.5.8-1.5.1-3.5.4-4.1 1.2-2.8 1 1.9 1.2 4.8.5 11.3-.3 2.2-.9 8-1.4 13-1.4 12.7-3.4 23.5-4.4 23.5-.4 0-.8 1.5-.8 3.2 0 2.4-.3 2.9-.9 1.9-.5-.8-1.7-1.6-2.7-1.7-.9-.2-2.7-1.3-3.8-2.6-1.2-1.3-3.8-3.2-5.9-4.3-6-3.1-6.2-3.8-3.4-9.7 1.4-2.9 3.7-7 5.1-9.1 1.4-2.1 2.6-4.2 2.6-4.8 0-.5.4-1.7.9-2.7 2.7-5 4.3-9.7 4.8-14.2.3-2.8.8-5 1-5 .2 0 1.2 1.9 2.3 4.2zm33.5 28.2c.2 4.4 0 7.6-.6 7.6-.5 0-.9-3.7-.9-8.2 0-10.1.9-9.7 1.5.6zm-192.3.8c-.7.7-1.2.8-1.2.2 0-1.4 1.2-2.6 1.9-1.9.2.3-.1 1.1-.7 1.7zm-336.6 10.9c-9.4 10.3-15.3 23.6-16.3 36.9-.7 9.1 1.1 23.6 3.7 29.3 1 2.3 2.6 6 3.6 8.2 2.9 6.9 9.7 16.5 11.6 16.5 2.3 0 2.3-1.1-.1-3.7-2.3-2.4-7.2-14.3-6.5-15.5 1-1.5 2.5.3 1.9 2.3-.4 1.1-.2 1.9.4 1.9.6 0 1.1-.7 1.1-1.6 0-1.8 7.7 5.3 9.4 8.8 2.3 4.5 3.5 3.2 3.8-4.3.2-4.7.7-7.4 1.6-7.7.6-.2 1.2.4 1.2 1.3 0 1.4 4.6 10.7 8.2 16.5.7 1.1 3.9 3.9 7 6.1 5.4 3.7 6.2 4 13 4 12 .1 14.5-1.5 30.2-19.4 4-4.6 6.6-4.2 6.6.9 0 1.9.2 3.4.4 3.4s1.1.3 1.9.6c.8.3 3-.8 4.8-2.4 3.9-3.4 7.9-5 7.9-3.2 0 .7.7 1 1.5.7 1.2-.5 1.1.3-.4 4.2-3.1 7.7-7.6 15-13.1 21.3-.8.9-3.1 3.7-5 6.2s-4.1 4.5-4.7 4.5c-.7.1-1.3.6-1.3 1.1 0 1.5-5.7 4.7-11.8 6.6-6.3 2-14.5 1-23.2-2.8-3-1.4-7.1-3.1-9-3.8-1.9-.8-3.7-1.6-4-2-1.3-1.5-6.2-4.1-6.8-3.6-2 2.1 17.3 13.7 27.3 16.5 9 2.5 23-.2 26.7-5.1 4.1-5.4 5.3-6.8 6-6.8 1.3 0 11.9-11.8 16.6-18.6 6.1-8.8 10.3-17.5 13.8-29.2 1.6-5 3.1-9.2 3.5-9.2.3 0 1.1 1.1 1.7 2.5.6 1.4 1.7 2.5 2.4 2.5s5.1 3.9 9.8 8.7c8.9 9.2 16.6 16.4 18.8 17.7 2.8 1.7-.9-3.5-6.6-9.2-12.8-12.8-25.3-26.8-25.6-28.7-.2-1.1-.9-7-1.5-13.1-1.2-12.1-3.6-20.7-8.3-29.8l-3-5.9 2.9.7c1.5.4 9.6 4 17.9 8.1 8.4 4.1 15.6 7.5 16.2 7.5 1.5 0 2 1.9 6.9 25.5 2.4 12.1 4.8 23.8 5.3 26 4.3 20.8 4.6 26.5 1.5 26.5-2.2 0-1.8 1.2 1.5 4.4 3.1 3 5.2 8.8 6.9 19.1.6 3.3 1.8 9.1 2.6 13 .9 3.8 2 9 2.5 11.5 2.6 13 3 14 5.6 13.4 1.4-.4 5.9-2.9 10.1-5.8 4.1-2.8 9.2-6.2 11.2-7.5 1.9-1.3 4.2-3 4.9-3.8.7-.7 3.5-2.7 6-4.5 4.9-3.4 33.7-31.5 36.5-35.8 2.2-3.1 2.2-1.2.1 4-.9 2.3-1.4 4.4-1 4.7.8.9 6.6-5.7 6.6-7.5 0-.6.8-1.2 1.9-1.2 2.2 0 7.6-5.7 15.5-16.5 8-10.9 11.4-14.6 12.1-13.5.3.6 3-1.6 5.9-4.8 7.9-8.5 22.6-25.2 26.8-30.3 2.6-3.2 6.2-5.8 11.9-8.7 8.3-4.2 10.5-4.7 7.7-1.5-2.4 2.8-4.3 7-7.6 16.8-4.9 14.7-5.3 34.7-1 50 1.5 5.2 2.3 6.1 4.2 4.6 1.1-.9 2-1 3.5-.2 1.1.6 3.3 1.1 4.9 1.1 2.9 0 2.9-.1 2.9-5.6 0-3.7.5-6.1 1.6-7.1 1.4-1.5 1.8-1.2 4.3 2.9 1.5 2.4 4.3 5.5 6.3 6.9 2 1.3 3.8 2.6 4.1 3 1.2 1.4 10.1 3 14.1 2.6 7.3-.9 9.2-1.8 14.2-6.8 5.4-5.6 11-8.9 14.9-8.9 1.8 0 2.9-.7 3.3-2 .3-1.1 1.1-2 1.6-2 1.1 0 1.1.2 0 5.7-.7 3.8-.6 4.3 1 4.3.9 0 1.9-.5 2.1-1.1.2-.6 2-1.7 4-2.4 3.3-1.1 3.8-1 5.3.8 1.7 1.9 1.6 2.2-.2 6.1-5.3 10.8-28.5 34.6-36.1 37-2.9.9-2.8 2.6.1 2.6 7.4 0 31.6-22.1 39.7-36.5 4.3-7.4 8-15 8-16.3 0-.6.5-1.2 1-1.2 1.4 0 1.4 37.7-.1 38.2-.6.2-1.5 4.4-2 9.3-.5 5-1.4 10.3-1.9 11.9-.6 1.6-1 3.8-1 4.9 0 1.2-1.2 5.9-2.6 10.5-2.2 7.3-2.7 8.2-3.8 6.7-1-1.4-2.1-1.6-5.2-1.1-9.3 1.8-9.1 4.6.4 4.6 2.8 0 5.2.3 5.2.7 0 .5-.7 2.6-1.4 4.8-8.6 24.1-10.6 29.6-12.5 33.4-1.1 2.5-2.1 4.8-2.1 5.2 0 .4-1.6 4.2-3.5 8.3-1.9 4.2-3.5 7.9-3.5 8.3 0 1.2-16 32.3-20.5 39.8-1.3 2.2-3.1 5.6-4 7.5-.9 1.9-2.8 4.7-4.2 6.2-1.4 1.4-2.3 3.2-2.1 3.9.3.9 2.3-.4 5.5-3.4 2.7-2.6 5.5-4.7 6-4.7.6 0 7.2-6.4 14.7-14.1 7.6-7.8 14-13.9 14.3-13.6.9.9-3.6 14.3-6.7 19.9-.6 1-1 2.5-1 3.3 0 1.5-.2 2.1-3.5 8.5-2.2 4.3-5.4 8-7 8-.6 0-2.4 1.4-4.1 3.1-3 3.2-19 15.9-20 15.9-.3 0-2 1.1-3.8 2.5-1.8 1.4-3.7 2.5-4.3 2.5-.5 0-1.8.9-2.8 2-1 1.1-3.9 3-6.4 4.2-2.5 1.2-5.3 2.7-6.1 3.4-.8.6-3.7 2.4-6.5 3.9-2.7 1.4-6.3 3.4-8 4.4-1.6 1-3.3 1.6-3.7 1.4-.9-.5-7.1 2.8-7.6 3.9s-8.9 5.2-20.2 10c-5.2 2.2-10.8 4.6-12.5 5.3-5.9 2.5-14.2 5.4-25.7 9-6.4 2-11.9 4.3-12.2 5.1-.3.8-.1 1.4.5 1.4 2.1 0 18.5-4.3 19.3-5.1.6-.5 1.7-.9 2.6-.9 2.6 0 28.3-10.2 40.3-16 3.3-1.7 6.3-2.8 6.6-2.5.2.3-.5 3.3-1.7 6.8-2.7 7.6-11.2 42.5-11.9 48.7-.3 3.2.3 7.2 2.1 13.5 1.4 4.9 2.6 10.1 2.6 11.5 0 1.4.7 3.4 1.5 4.4 1.7 2.3.4 4.6-2.6 4.6-1 0-2.1.5-2.4 1-.3.5-2.1 1-3.8 1-4.7 0-26.7 4.8-28.3 6.1-1 .8-1.8.8-2.6.1-.7-.5-2.9-.8-4.8-.6-30.2 3-48 3.1-92.5.3-18.1-1.1-36.4-2.2-40.5-2.5-4.1-.2-9.7-.8-12.5-1.4-2.7-.5-8.8-1.2-13.4-1.4-10.2-.7-20.7-3.9-21.6-6.6-.4-1.1.1-4.7.9-8.1 1.2-4.4 1.6-11.7 1.8-26.7.1-20.2.1-20.9-2.7-29.2-1.5-4.7-3.1-9-3.5-9.5-.4-.6-1-2.1-1.3-3.5-.5-2.6-9-24.1-10.8-27.2-.5-1-.9-2.3-.9-3 0-.6-2.3-5.6-5.1-11.1-5.1-10.1-5.6-13.4-1.4-8.5 1.3 1.6 2.7 2.8 3 2.8.3 0 1.3.8 2.3 1.7 4 3.9 8.2 7.3 9 7.3.4 0 1.5.8 2.4 1.7 1.9 2.1 3 3 7.8 6.3 1.9 1.3 4.9 3.7 6.5 5.2 1.7 1.5 3.4 2.8 3.8 2.8.4 0 1.3.5 2 1.1 1.1.9 6.3 4.8 26.7 19.9 7.5 5.5 10.2 7.3 13 8.6.8.4 2.4 1.5 3.5 2.4 1.9 1.6 5.2 3.6 14.5 8.8 2.5 1.4 4.8 2.9 5.1 3.3 1.2 1.9 24.9 12.9 27.6 12.9 6-.1 41.2-11.2 44.7-14.2.6-.4-.6-.8-2.6-.8s-3.9.4-4.2.9c-.3.5-2 1.1-3.8 1.4-1.8.2-7.3 1.7-12.3 3.2-13.4 4-20.7 5.6-23.5 4.9-1.4-.3-8.4-3.4-15.7-7-11.4-5.6-34-20.3-47.9-31.2-1.6-1.2-13-9.8-25.4-19.1-12.4-9.3-28.8-22.2-36.5-28.6-15.6-13.1-41-36.7-42.6-39.7-.6-1.1-1.2-4.1-1.4-6.6-.5-6.5-2.4-16.4-3.5-18.4-1-1.7.2-6.8 1.6-6.8.3 0 2.3 1.8 4.5 4s4.4 3.8 4.8 3.6c.4-.3 3.6 2.4 7.1 5.9 3.6 3.6 6.9 6.5 7.6 6.5.6 0 1.9.9 2.9 2 1.8 2 7 5 8.7 5 2.3 0 0-3.5-6.7-10-4.3-4.2-7.9-8.8-8.6-10.7-.6-1.8-1.5-3.3-2-3.3s-.9-.9-.9-2-.4-2-1-2c-.5 0-1-.7-1-1.5s-.5-1.5-1-1.5c-.6 0-2.1-1.7-3.3-3.7-2.6-4.5-10.7-22.2-10.7-23.6 0-.5-.6-2.3-1.4-4-.8-1.8-3.1-8.2-5-14.2-5-15.3-5.3-16.5-6.1-20.5-.4-1.9-1.3-5.5-2.1-8-.7-2.5-2.5-9.9-4-16.5-1.4-6.6-3-13.6-3.5-15.5-.5-1.9-.7-5.1-.6-7 .3-2.3-.2-3.9-1.2-4.7-.9-.6-1.3-1.4-1-1.8.4-.3 2.8 1.2 5.3 3.5 2.6 2.2 5 4 5.3 4 1.4 0-1.3-6-6-13.4-2.9-4.4-5.8-9.4-6.5-10.9-2.9-6.6-2.4-20.3 1.2-34.4 2.2-8.7 6.6-29.7 7.6-36.3.4-3 1.3-7.4 1.9-9.8 1.1-3.8 1.5-4.2 4.4-4.3 1.8-.1 4.3-.5 5.7-.9 5.8-1.9 6.4-1.2 2.6 3.1zm20.8 5.5c3.8 1.4-.3 8.4-4.9 8.4-3.3 0-3.2-2.6.2-6.2 1.5-1.5 2.8-2.8 2.9-2.8.1 0 .9.3 1.8.6zm395.8 1.8c1.7 3.1.3 3.8-2.5 1.2-3.3-3-3.3-3.3-.6-3.1 1.2.1 2.6.9 3.1 1.9zM1116 821c0 4.8-2.1 11-3.8 11-.4 0-.7-3.6-.7-8 0-7.6.1-8 2.3-8 2 0 2.2.5 2.2 5zm-125.1-.5c4.6 2.9 4.7 3 5.6 7.6.5 3 .2 4.1-1.8 6.4l-2.4 2.9-6.9-1.8c-3.8-1-7.5-2.4-8.3-3.2-.8-.7-1.6-3.3-1.8-5.7-.4-4.1-.3-4.6 2.9-6.5 4.5-2.7 8.1-2.7 12.7.3zM585 823c0 .5-.7 1-1.5 1s-1.5-.5-1.5-1c0-.6.7-1 1.5-1s1.5.4 1.5 1zm340.6 6.5c.6 1.5-1.7 4.5-3.5 4.5-1.5 0-1.4-3.3.1-4.8 1.6-1.6 2.7-1.5 3.4.3zm188.6 12.6c1.1 5.1 1.4 15.6.5 16.5-1.6 1.6-2.7-2.3-2.7-9.8 0-4.2-.3-8.4-.7-9.4-.4-1.2-.2-1.5.8-1.2.7.2 1.7 2 2.1 3.9zm-199.7-.1c.3.5-.1 1-.9 1-.9 0-1.6-.5-1.6-1 0-.6.4-1 .9-1 .6 0 1.3.4 1.6 1zm-427.1 19.9c1.5 1.7 1.5 1.9.1 2.5-.9.3-1.3.2-1-.3.3-.5.1-1.2-.5-1.6-.9-.6-1.4-2.5-.7-2.5.2 0 1.2.8 2.1 1.9zm3.6 8.8c0 .7.5 1.3 1 1.3.6 0 1 .9 1 2.1 0 1.5.5 1.9 1.5 1.5 1-.4 1.5.1 1.5 1.4 0 1.2.7 2 1.7 2 .9 0 1.3.3.9.7-.4.4-2.1-.1-3.9-1-2.4-1.3-3.7-3.1-5-6.6-.9-2.7-1.7-5.3-1.7-5.7.1-1.4 3 2.8 3 4.3zm3.7 11.5c-.3.8-.6.5-.6-.6-.1-1.1.2-1.7.5-1.3.3.3.4 1.2.1 1.9zm55.7.9c.3 1.7.6 4.7.6 6.5 0 1.9.3 3.4.8 3.4.4 0 1.5 4.6 2.6 10.2 4.4 24.7 11.4 51.4 18.2 70.3 1.7 4.9 4 11.2 5 14 .9 2.7 2.1 5.4 2.6 6 .4.5.8 1.6.8 2.5 0 .8.7 2.7 1.4 4.2 1.3 2.4 1.3 2.8 0 2.8-.8 0-1.4-1-1.4-2.3-.1-1.9-.2-2-1.3-.6-1.2 1.6-3.7 1.5-3.7-.2 0-.4.7-.6 1.5-.3 1.1.5 1.3.2.9-1-.3-.9-1-1.6-1.6-1.6-.5 0-.7-1-.4-2.3.3-1.2.3-1.6 0-1-.9 1.9-2.7 1.6-2-.3.5-1.2-.9-3.1-4.3-6.3-13.3-12.3-12.3-11.3-17.9-20.6-4.6-7.8-7.5-15.2-6.6-16.7.4-.6.1-2.8-.7-5-.9-3-1-4.4-.2-5.8.7-1 1.2-5.8 1.3-10.6.2-11.6.2-11.6-1-10.9-.5.3-1-.3-1-1.4 0-1.2-.7-2.1-1.5-2.1s-1.5-.5-1.5-1c0-.6-.8-1.1-1.7-1.1-1.6-.1-1.6-.2-.1-.6 2.2-.6 5.1-5 3.8-5.8-.6-.3-1 .1-1 .9 0 .9-.4 1.6-1 1.6-1.6 0-1.2-3 .5-3.6.9-.4 1.5-1.9 1.5-3.9 0-1.7 1.1-6.3 2.5-10.1s2.5-7.7 2.5-8.6c0-3 1.7-2 2.4 1.3zm-51.7 5.4c.2 2.6.1 2.6-1.2.9-1.8-2.4-1.9-4.7-.3-4.2.7.3 1.4 1.7 1.5 3.3zm29.5 7.5c0 2.2.7 4.5 1.4 5.1.8.7 1.2 2 .9 3-.5 1.4-.2 1.7.9 1.3 1.9-.7 2.1 1.7.4 4.9-1.1 2.1-1.1 2.1-1.9.2-.6-1.6-.8-1.3-.9 1.5-.1 3.4-.2 3.4-1.1 1-1.5-3.6-3-18.6-2.3-21.6.6-2.3.8-2.4 1.6-1 .5.9 1 3.4 1 5.6zm-26.8-1.5c.3.8.1 1.5-.4 1.5-.6 0-1-.7-1-1.5s.2-1.5.4-1.5.6.7 1 1.5zm30.3 3.7c-.3.8-.6.5-.6-.6-.1-1.1.2-1.7.5-1.3.3.3.4 1.2.1 1.9zm3.5.3c-.5 2.8-2.2 4.4-2.2 2.1 0-2.1 1.1-4.6 2-4.6.4 0 .5 1.1.2 2.5zm583.8 3.2c0 2.1-.3 2.4-.9 1.4-.5-.8-.7-2-.4-2.8.8-2.1 1.3-1.5 1.3 1.4zm-376.3 7c-.3 1-.5.4-.5-1.2 0-1.7.2-2.4.5-1.8.2.7.2 2.1 0 3zm52.3-.7c0 .5-.4 1-1 1-.5 0-1-.5-1-1 0-.6.5-1 1-1 .6 0 1 .4 1 1zm-51.3 6.2c-.3.8-.6.5-.6-.6-.1-1.1.2-1.7.5-1.3.3.3.4 1.2.1 1.9zm-205.5 3.7c-.2 1.6-1 3.2-1.7 3.5-1.4.5-.9-3 .8-5.2 1.3-1.7 1.4-1.6.9 1.7zm-10.5 1.3c-.3.7-.5.2-.5-1.2s.2-1.9.5-1.3c.2.7.2 1.9 0 2.5zm15 2.8c0 2.7-.3 4.7-.8 4.4-1.1-.7-1.2-9.4-.1-9.4.5 0 .9 2.2.9 5zm203.5 1c-.2 1.6-.6 3-.8 3-.2 0-.4-1.4-.4-3 0-1.7.4-3 .8-3 .5 0 .7 1.3.4 3zm34.5-2.4c-.3.3-1.2.4-1.9.1-.8-.3-.5-.6.6-.6 1.1-.1 1.7.2 1.3.5zM541.9 931c.5 0 1.2-.8 1.4-1.8.3-.9.5-.4.6 1.3.2 5.5-1.4 6.1-3.8 1.3-1.1-2.4-2.1-5.1-2.1-5.9.1-.8.7.1 1.5 1.8.8 1.8 1.8 3.3 2.4 3.3zM448 944.5c0 1.4-.4 2.5-.9 2.5-.4 0-.6-1.1-.3-2.5.2-1.4.6-2.5.8-2.5.2 0 .4 1.1.4 2.5zm-.3 5.6c.5 1.8 1.1 2.1 4.7 1.6 2.3-.3 3.5-.3 2.9 0-1.5.6-1.7 4.3-.3 4.3.6 0 1-.5 1-1 0-.6.4-1 .9-1s.9 1.2.9 2.7c0 1.5.4 2.9 1 3.1.7.2.9 1.6.6 3.5l-.6 3.2 2.6-3c1.4-1.7 2.5-3.3 2.6-3.7 0-.4.7-.5 1.5-.2 1.2.5 1.1 1-.7 3.1-5.6 6.1-9.3 9.3-10.8 9.3-.5 0-1 .4-1 1 0 .5-.5 1-1.1 1-.7 0-1.9.8-2.8 1.8-3.7 3.9-5 4.5-6.8 3.1-1.5-1.2-1.6-1.2-1 .4.5 1.2.1 2-1.1 2.3-.9.3-3.3 1.4-5.3 2.5-2 1-4.4 1.9-5.2 1.9-.8 0-1.7.5-1.9 1.1-.2.5-1.8 1.1-3.6 1.1-1.7.1-3.2.5-3.2 1 0 .4-.7.8-1.5.8-2.2 0-1.8-1.5.8-2.9 1.3-.7 3.2-2.6 4.2-4.3 2.2-3.8 5.1-6.8 6.6-6.8.5 0 .7-.4.4-1-.6-.9.1-2 3.6-5.9.8-.9 1.3-2.3 1.1-2.9-.2-.7.6-1.2 1.7-1.2 1.8 0 2-.4 1.5-2.5-.4-1.5-.2-2.5.5-2.5.6 0 1.1-.7 1.1-1.5 0-2 4.3-10.4 5.3-10.5.5 0 1.1 1 1.4 2.1zM534 953c0 .5-.2 1-.4 1-.3 0-.8-.5-1.1-1-.3-.6-.1-1 .4-1 .6 0 1.1.4 1.1 1zm4.2 4.8c.6.7.8 1.5.4 1.9-1 1-1.7-.2-2-3.8-.2-1.9-.1-2.5.1-1.4.3 1.1 1 2.6 1.5 3.3zm4.8 1.4c0 .5-.4.8-1 .8-.5 0-1-1-1-2.3 0-1.8.2-1.9 1-.7.5.8 1 1.8 1 2.2zm-7-.1c0 .5-.7.9-1.5.9-.9 0-1.2-.6-.9-1.5.6-1.5 2.4-1.1 2.4.6zm0 3.5c0 .2-.7.4-1.5.4s-1.5-.4-1.5-1c0-.5.7-.7 1.5-.4.8.4 1.5.8 1.5 1zm8.7 4.6c-.3.8-.6.5-.6-.6-.1-1.1.2-1.7.5-1.3.3.3.4 1.2.1 1.9zM543 969c0 .5-.4 1-1 1-.5 0-1-.5-1-1 0-.6.5-1 1-1 .6 0 1 .4 1 1zm4.7 1.2c-.3.8-.6.5-.6-.6-.1-1.1.2-1.7.5-1.3.3.3.4 1.2.1 1.9zm564.3-1.8c0 .2-.6 1.8-1.4 3.6-1.1 2.7-1.4 2.9-1.8 1.3-.6-2.2.8-5.3 2.2-5.3.6 0 1 .2 1 .4zm-562.7 7.3c-.7.2-1.9.2-2.5 0-.7-.3-.2-.5 1.2-.5s1.9.2 1.3.5zm-5.3 2.8c0 .8-.4 1.5-1 1.5-.5 0-.7-.7-.4-1.5.4-.8.8-1.5 1-1.5.2 0 .4.7.4 1.5zm10.8 2.2c1.2 1 1.3 1.7.4 3.5l-1.2 2.3.6-2.3c.3-1.5 0-2.4-1-2.8-.9-.3-1.6-1.6-1.5-2.8 0-1.4.2-1.6.6-.6.3.8 1.2 2.1 2.1 2.7zM552 985c0 .5-.2 1-.4 1-.3 0-.8-.5-1.1-1-.3-.6-.1-1 .4-1 .6 0 1.1.4 1.1 1zm6 2c0 .6.8 2.3 1.9 3.8 3.6 5.4 5.5 8.7 5.3 9.4-.1.5 1.1 3.6 2.7 7 9.2 20.3 9.7 22 10.6 33.8.2 3 1 12.9 1.8 22 1.5 18.1 1.5 41 .1 48-1 4.4-1 4.5-1.8 1.6-.4-1.7-.7-9.6-.7-17.8 0-9-.4-14.8-1-14.8s-.6-.7.1-1.9c1.6-3.1 1.3-4.3-.9-3.1-2.1 1.1-3.7-.2-2.6-2 .3-.6-.1-1-1-1-1.2 0-1.5-.6-1-1.9.3-1.1.1-2.2-.5-2.6-.7-.5-.5-1.2.7-2.1 1.2-.9 1.3-1.3.5-1.4-.7 0-1.9-.6-2.7-1.3-1.6-1.7-3.5-15.6-2.2-16.4 1.3-.8-.1-11.5-2.1-15.5l-1.6-3.3-.6 3-.6 3-1.3-3.7c-1.2-3.7-1.8-7-2-12-.1-2.1-.5-2.6-1.7-2.1-1.4.5-1.6-.2-1.4-4.8.5-8.3.1-10.9-1.3-10.9-.8 0-1.9 1-2.5 2.2-1.1 2.3-1.1 2.2-.9-.4.1-1.5.5-2.6 1-2.5.5.1 1.4-.6 2-1.5.9-1.4.7-2.1-1-3.7-1.1-1.1-2.4-1.7-2.7-1.4-.3.4-.6.1-.6-.5 0-.5-.3-1.9-.6-2.9-.6-1.7-.6-1.7.7 0 1.4 1.7 1.6 1.7 3.9-.6 2.8-2.7 4-3.2 4-1.7zm-10 4.2c0 .5-.4.8-1 .8-.5 0-1-1-1-2.3 0-1.8.2-1.9 1-.7.5.8 1 1.8 1 2.2zm2.6 2.9c.3.6 0 1.8-.8 2.6-1.4 1.3-1.6 1.2-2-1.1-.5-2.7 1.4-3.7 2.8-1.5zM583 1006c0 .5-.2 1-.4 1-.3 0-.8-.5-1.1-1-.3-.6-.1-1 .4-1 .6 0 1.1.4 1.1 1zm1.7 2.2c-.3.7-.5.2-.5-1.2s.2-1.9.5-1.3c.2.7.2 1.9 0 2.5zm3.3 2.8c0 .5-.4 1-1 1-.5 0-1-.5-1-1 0-.6.5-1 1-1 .6 0 1 .4 1 1zm403 6c0 .5-.4 1-1 1-.5 0-1-.5-1-1 0-.6.5-1 1-1 .6 0 1 .4 1 1zm36 16.9c0 .6-.4 1.3-1 1.6-.5.3-1-.1-1-.9 0-.9.5-1.6 1-1.6.6 0 1 .4 1 .9zm-452 50.2c0 1.1-.4 1.7-1 1.4-.5-.3-1-1.3-1-2.1s.5-1.4 1-1.4c.6 0 1 .9 1 2.1zm-19.6 12.7c-.4 2.6-1.1 5.8-1.5 7-1.9 5.1.6 4.2 6.8-2.3 3.5-3.7 6.7-6.5 7-6.1.9.9 1.3 2.8 2.2 13.1.5 4.9 1.4 10.6 2 12.5.6 1.9 1.1 4.7 1.1 6.2 0 2.6-.2 2.7-3.2 2.1-4.5-.8-12.9-5.5-21-11.7-6.4-4.8-7.7-6.4-6.1-7.9.3-.4.8-1.9.9-3.3.2-1.4.9-3.1 1.7-3.7.7-.7 3.1-3.6 5.1-6.5 2.1-2.8 4.2-4.9 4.7-4.6.6.3.7 2.5.3 5.2zm69.8 11.7c.3 1.4.1 2.5-.3 2.5-.5 0-.9-1.1-.9-2.5s.2-2.5.4-2.5.6 1.1.8 2.5zm-1.2 10.7c0 .5-.4.8-1 .8-.5 0-1-1-1-2.3 0-1.8.2-1.9 1-.7.5.8 1 1.8 1 2.2zm4.3-.4c-.6 2.6-2.6 2.4-3.1-.3-.2-1 0-1.5.6-1.1.6.3 1.4.1 1.7-.5 1.1-1.6 1.5-.6.8 1.9zm-40.9 5c-.1 2-.2 4.5-.3 5.4-.1 1.3-1 1.8-3.2 1.8-2.8 0-3.1-.2-2.4-2.3.4-1.2 1.2-4.3 1.8-6.9 1-4.3 1.2-4.6 2.7-3.3 1.1 1 1.6 2.8 1.4 5.3zm34.4 1.3c2.7 1 2.8 2.5.2 4.1-1.1.7-2 1.8-2 2.5s-.4 1.3-1 1.3c-.5 0-1-.5-1-1.1 0-.5-.4-.8-.9-.5-.5.3-.7 1.6-.4 2.9.4 1.8.3 1.9-.6.7-.7-1-1.1-1.1-1.1-.3 0 .7-.8 1.3-1.7 1.4-1.1 0-1.3.3-.5.6 1.7.7 1.5 2.7-.7 5.4l-1.9 2.4v-3c.1-4.4 2-13.5 3-14.1.4-.3.8-1.4.8-2.5 0-2 1.8-2 7.8.2zm10.9 1.6c-.3.2.8 3 2.4 6.1 2.1 4.1 2.9 7 2.9 10.9 0 2.8-.4 5.4-.9 5.7-.9.6-3.4-11.1-2.6-12.4.3-.4-.2-1.3-1.1-2-.8-.7-1.3-1.9-1-2.7.3-.7.2-1.3-.3-1.3-1.2 0-2-3.6-1.4-6.1.5-1.9.7-2 1.5-.4.6.9.8 1.9.5 2.2zm-29.7 20.7c0 .8-1.3 4.4-3 8.1-1.6 3.7-3 6.9-3 7.1 0 .2.9.4 2.1.4 1.1 0 3.8-1.8 5.8-3.9 3-3.1 4.5-3.9 6.7-3.7 2.3.3 2.9.8 3 2.7 0 1.3.6 2.3 1.2 2.2 2.3-.5 6-4.5 5.5-5.9-.7-1.8.5-1.8 2.3 0 1.8 1.8 1.8 3.1 0 6.4-.8 1.5-2.6 6.1-4.1 10.2-6.6 18.6-7.6 20.1-15.2 22.5-3.2 1.1-7.3 3-9 4.3-3.8 2.7-3.9 3-2.1 20.8 1 10.8 1 12.5-.5 15.7-.9 1.9-1.7 4-1.7 4.6 0 .6-.4 1.1-1 1.1-.5 0-1 .8-1 1.7 0 .9-.6 2.4-1.4 3.2-2.2 2.6-14.6 21-14.7 21.8-.1 1.3-9.3 12.6-10.6 13-2.7.9-2.8-7.7-.3-23.2.6-3.9 1.2-16.3 1.3-27.6.2-16 .5-20.5 1.5-20.2.9.4 1.2-2.8 1.1-14.3-.1-8.2-.4-13.9-.6-12.7-.7 3.4-2.3 2.8-2.4-1 0-1.7-.2-4.3-.5-5.6-.2-1.4.3-3.2 1.2-4.3 2.1-2.2 3.6-2.4 2.8-.3-.4.8-.1 1.5.6 1.5.6 0 1-1 .8-2.3-.1-1.3.7-3.7 2-5.3 1.2-1.6 3.1-4.2 4.3-5.7 2.5-3.3 4.8-2.3 3 1.2-.8 1.4-.8 2.1-.1 2.1.5 0 1-.7 1-1.5s.7-1.5 1.5-1.5 1.5.7 1.5 1.5c0 .9-.7 1.8-1.5 2.1-.8.4-1.5 1.2-1.5 1.9s-.3 1.5-.7 1.7c-.5.2-1.9 1.5-3.2 3-1.9 2.2-2.1 3-1.2 4.1 2.3 2.8 5.8 1.6 11-3.8 2.8-2.9 5.1-5.7 5.1-6.3 0-.5.7-1.5 1.5-2.2.8-.7 3.6-4.4 6.1-8.1 4.4-6.7 6.4-8.4 6.4-5.5zm13.7 5.2c-.3.3-1.2.4-1.9.1-.8-.3-.5-.6.6-.6 1.1-.1 1.7.2 1.3.5zm21 3.1c-.3 1-.5.4-.5-1.2 0-1.7.2-2.4.5-1.8.2.7.2 2.1 0 3zm-55.2 1.3c-.5.8-1.1.8-1.7.2-.6-.6-.7-1.6-.3-2.2.5-.8 1.1-.8 1.7-.2.6.6.7 1.6.3 2.2zm361.2 3.2c-.3.8-.6.5-.6-.6-.1-1.1.2-1.7.5-1.3.3.3.4 1.2.1 1.9zm4.3 8.8l.2 3.5 1.1-3.5 1-3.5.8 4c.5 2.2 2 10.3 3.4 18 1.4 7.7 3.2 17.1 4 21 .9 3.8 2.4 13.7 3.5 22 1.1 8.2 2.2 16.9 2.6 19.2.3 2.4.3 4.3.1 4.3-.9 0-8.5-6.5-15.1-12.8-7.6-7.3-7.3-6.2-5-19.9 1.1-7.3-1.2-12.9-8.5-20l-6.3-6.2 3.3-4.2c1.8-2.3 3.4-5.1 3.5-6.3.3-3.2-1.8-8.5-3.5-9-1.1-.3-1-.5.4-.4 4.1.1 6.6-1.4 7.2-4.3.6-2.9 3.3-4.9 3.3-2.4 0 .8.5 1.5 1 1.5.6 0 1-1.9 1.1-4.3 0-3.2.2-3.7.9-2.2.5 1.1.9 3.6 1 5.5zm-388.4 9.6c-.3.9-.6 1.8-.6 2 0 .2-1.2.4-2.7.3-2.7 0-2.7-.1-.5-.9 1.2-.5 2.2-1.4 2.2-2 0-.5.5-1 1.1-1 .6 0 .8.7.5 1.6zm2.5 11.2c.1 3.2-.3 5.7-1.1 6.5-1 1-1.1.4-.6-2.8.3-2.2.6-5.3.6-6.9 0-5 .9-2.3 1.1 3.2zm371.4-4.8c.3.5.1 1-.4 1-.6 0-1.1-.5-1.1-1 0-.6.2-1 .4-1 .3 0 .8.4 1.1 1zm-5 2.9c-.3.6-1.1 1.1-1.6 1.1s-.4-.6.3-1.4c1.4-1.6 2.4-1.3 1.3.3zm111.1 4.6c.2 1.3-.1 1.4-1.2.4-.8-.6-1.4-1.9-1.4-2.7 0-1.2.3-1.3 1.2-.4.6.6 1.3 1.9 1.4 2.7zM561 1209l-1.1 2.5.6-2.5c.2-1.4.6-4.1.7-6l.1-3.5.4 3.5c.2 2-.1 4.7-.7 6zm279 35.4c5.4 3.6 6.4 7.6 6.4 27 .1 15.7-1.4 36.6-2.8 39.6-1.3 2.7-10.7 9.2-14.4 10-6.7 1.4-20.5 3-30.2 3.6-5.2.3-14.4.9-20.5 1.3-12 .7-37.3-.3-44.6-1.9-2.6-.5-6.9-2.2-9.5-3.8l-4.9-2.8-.8-9c-1.5-16-1.9-49.5-.7-56.6 1.8-10.5 5.4-13 17.5-12 1.1.1 12.6.8 25.5 1.7 12.9.8 24.8 1.6 26.3 1.9 1.6.2 3-.1 3.3-.7.3-.8 4.4-1.3 12.2-1.5 20.7-.5 29.1-1.1 30.9-2.1 1.4-.8 1.9-.6 2.1.9.2 1 2.1 3 4.2 4.4zm104.3-3.9c-.3.9-.8 1.4-1 1.1-.3-.3-.2-.9.2-1.5.9-1.6 1.5-1.3.8.4zm-40.3 16c0 .8-.7 1.5-1.5 1.5s-1.5-.7-1.5-1.5.7-1.5 1.5-1.5 1.5.7 1.5 1.5zm8.6 8.6c.3.6-.1 1.8-.9 2.7-1.4 1.3-1.8 1.3-3.2.2-1.6-1.3-1.5-1.5.1-2.7 2.2-1.6 3.1-1.6 4-.2zm-506.1 48.4c0 2.3-.4 3-2 3-2.1 0-3.1-2.5-2.1-5.1 1.1-2.8 4.1-1.2 4.1 2.1zm-6.9 141.4l2.4 1.9-2.4 1.6c-2.2 1.4-2.5 1.4-3 0-.8-2-.8-5.4 0-5.4.3 0 1.7.9 3 1.9zm226.8 28c.3.4-.1 1.7-.9 2.7-1.4 1.8-1.4 1.8-1.5-.9 0-2.6 1.3-3.6 2.4-1.8zm0 5.8c-.5.5-1.2 1.2-1.6 1.8-.4.6-.8.2-.8-.8 0-.9.7-1.7 1.7-1.7.9 0 1.2.3.7.7z"/><path d="M1264 565.5c0 .9.5 1.5 1.1 1.3.6-.2 1.1-.8 1.1-1.3s-.5-1.1-1.1-1.3c-.6-.2-1.1.4-1.1 1.3zM1262 570c0 .5.5 1 1 1 .6 0 1-.5 1-1 0-.6-.4-1-1-1-.5 0-1 .4-1 1zM1293.8 584.7c.7.3 1.6.2 1.9-.1.4-.3-.2-.6-1.3-.5-1.1 0-1.4.3-.6.6zM1290.5 602c.3.5 1.2.7 2 .3 2.1-.7 1.9-1.3-.6-1.3-1.1 0-1.8.4-1.4 1zM1288.1 604.6c0 1.1.3 1.4.6.6.3-.7.2-1.6-.1-1.9-.3-.4-.6.2-.5 1.3zM1291 605.6c0 1.4.3 1.4 1.5.4.8-.7 1.5-1.4 1.5-1.6 0-.2-.7-.4-1.5-.4s-1.5.7-1.5 1.6zM1280.8 607.7c.7.3 1.6.2 1.9-.1.4-.3-.2-.6-1.3-.5-1.1 0-1.4.3-.6.6zM1285 609.1c0 .5.5.7 1 .4.6-.3 1-.8 1-1.1 0-.2-.4-.4-1-.4-.5 0-1 .5-1 1.1zM1191 436.9c0 .6.4 1.3 1 1.6.6.3.7-.1.4-.9-.7-1.8-1.4-2.1-1.4-.7zM1170.8 487.7c.6.2 1.8.2 2.5 0 .6-.3.1-.5-1.3-.5-1.4 0-1.9.2-1.2.5zM1172 498c0 .5.9 1 2 1s2-.5 2-1c0-.6-.9-1-2-1s-2 .4-2 1zM810 440.9c0 .6.5 1.3 1 1.6.6.3 1-.1 1-.9 0-.9-.4-1.6-1-1.6-.5 0-1 .4-1 .9zM900.8 612.2c1.2 1.2 2.4 1.9 2.8 1.5 1-1-1.6-3.7-3.4-3.7-1.3 0-1.2.4.6 2.2zM614.6 613.9c-.4.7-.5 1.5-.2 1.8.9.9 1.9-.4 1.4-1.8-.4-1.1-.6-1.1-1.2 0zM620.5 617c.3.5.8 1 1.1 1 .2 0 .4-.5.4-1 0-.6-.5-1-1.1-1-.5 0-.7.4-.4 1zM588.7 642c.3 1.1.7 2 .9 2 .2 0 .4-.9.4-2s-.4-2-.9-2-.7.9-.4 2zM883 681.2c0 2.9-.7 12.4-1.7 21-1.2 11.4-1.4 16.1-.6 16.9.8.8 1.3-1.8 1.8-9.3.3-5.6 1.1-13 1.6-16.3 1.2-8 1.1-17.5-.1-17.5-.5 0-1 2.4-1 5.2zM878.5 727.1c-.4 2.2-.3 4.5.1 4.9.5.5 1-1.3 1.2-4.1.4-6-.4-6.4-1.3-.8zM957 726.3c0 1 .8 1.7 1.8 1.7.9 0 1.3-.4.7-.8-.5-.4-1.3-1.1-1.7-1.6-.5-.5-.8-.2-.8.7zM681.4 746.5c-1 .8-1.4 1.5-.9 1.5.6 0 5.1.7 10 1.5 11.2 1.8 10.5 1.9 10.5-.4 0-1.2-1.1-2.3-3.1-3-4.6-1.6-14.1-1.4-16.5.4zM888 754.9c-7.7 3.1-15 7.3-15 8.7 0 1.6 1.1 1.8 2.6.5.5-.4 4.4-1.9 8.7-3.2 5-1.5 8.2-3 8.9-4.2 1.6-3-.3-3.7-5.2-1.8zM888.3 763.3c-4.4 6.4-9.3 18.1-9.2 21.7.1 1.9.3 2.7.6 1.7.3-1 3.1-6.9 6.4-13.1 3.2-6.2 5.9-11.8 5.9-12.5 0-2-1.5-1.2-3.7 2.2zM932.6 765.5c-.9 2.6-.7 3.2.5 1.2.6-1 .9-2.1.6-2.3-.2-.3-.7.2-1.1 1.1zM630.7 770.7c.9 2.3 10.1 17.5 11.4 18.8.5.5 3.3 1.7 6.2 2.5 4.6 1.3 5.4 2 7.2 5.7 1.8 4 4.1 6 5.3 4.8.3-.3-.2-1.9-1.1-3.4-.9-1.6-1.7-4-1.7-5.3 0-1.3-.4-2.8-.9-3.4-.5-.5-2.3-4.5-4.1-8.9-1.7-4.4-3.5-8.7-3.9-9.5-.9-1.7-6.3-2.9-13.8-2.9-4.6-.1-5.2.1-4.6 1.6zM930.1 771.6c0 1.1.3 1.4.6.6.3-.7.2-1.6-.1-1.9-.3-.4-.6.2-.5 1.3zM722.8 797.6c-.3.3-.2 2.2.3 4.2s1.6 7.5 2.4 12.1c1.6 9.4 3.1 11.6 8.9 13.2 2.2.6 5.3 2 6.8 3.1 4 2.8 3.7.2-.5-5.4-5.7-7.4-11-15.9-10.4-16.5.3-.3 2.7.2 5.2 1.1 2.6.8 4.5 1.1 4.3.7-1-2.6-16-13.6-17-12.5zM750.3 899.7c-1.8.7-1.6 4.3.2 4.3.9 0 1.5-.9 1.5-2.5 0-1.4-.1-2.5-.2-2.4-.2 0-.9.3-1.5.6zM552.8 695.7c-2.7 1.9-4.8 4-4.8 4.5 0 .6.6.5 1.5-.2.8-.7 3.4-2.3 5.7-3.5 4.2-2.3 6.1-4.6 3.6-4.4-.7 0-3.4 1.6-6 3.6zM551.5 785.1c-2.2 1.6-7.3 4.8-11.2 7-11.1 6.2-11.8 7.7-11.7 23.4 0 8.3.7 15.9 1.8 21 1.8 8.4 5.3 19.3 6.8 20.9.4.6.8 1.5.8 2.2 0 .6.7 2.9 1.6 5l1.6 3.9 2.4-2.8c1.9-2.3 2.4-3.9 2.4-8.5 0-5-2.9-18.6-4.5-21.2-1-1.7-3.5-18.3-3.5-23.8 0-6.6 2.4-9.2 10.9-11.6 3.2-.9 7.1-2.6 8.5-3.7 2.3-1.8 2.6-2.7 2.6-8.5 0-6-.1-6.4-2.2-6.3-1.3 0-4.1 1.4-6.3 3zM509.2 848.5c0 1.6.2 2.2.5 1.2.2-.9.2-2.3 0-3-.3-.6-.5.1-.5 1.8zM512.2 873c0 1.4.2 1.9.5 1.2.2-.6.2-1.8 0-2.5-.3-.6-.5-.1-.5 1.3zM515.1 873.6c0 1.1.3 1.4.6.6.3-.7.2-1.6-.1-1.9-.3-.4-.6.2-.5 1.3zM529 876c0 2.2.3 4 .8 4 .4 0 .6-1.8.4-4-.2-2.2-.6-4-.8-4-.2 0-.4 1.8-.4 4zM512.1 881.6c0 1.1.3 1.4.6.6.3-.7.2-1.6-.1-1.9-.3-.4-.6.2-.5 1.3zM516.2 882.5c-1.4 3.1-1.5 5.5-.3 5.5.7 0 2.2-7 1.6-7.8-.1-.1-.7.9-1.3 2.3zM1014.6 831.5c-.3.9-.6 4.4-.6 7.8 0 3.7-.5 6.7-1.4 7.6-.7.9-1.6 5.1-2 9.3-.5 6.4-.3 7.8.9 7.8.9 0 1.6-1.6 2-4.8.3-2.6 1-7.2 1.5-10.2 1.4-7.9 1.9-16.5 1-18-.5-.8-.9-.7-1.4.5zM1077.1 846.6c0 1.1.3 1.4.6.6.3-.7.2-1.6-.1-1.9-.3-.4-.6.2-.5 1.3zM1070.2 852.5c-1.5 3.3-1.5 3.5.2 3.5.8 0 1.6.6 1.8 1.2.3.7.5-.6.6-3 .2-4.7-.9-5.4-2.6-1.7zM1075.1 857.6c0 1.1.3 1.4.6.6.3-.7.2-1.6-.1-1.9-.3-.4-.6.2-.5 1.3zM1010.2 869c0 1.4.2 1.9.5 1.2.2-.6.2-1.8 0-2.5-.3-.6-.5-.1-.5 1.3zM1061 873c0 .5.5 1 1 1 .6 0 1-.5 1-1 0-.6-.4-1-1-1-.5 0-1 .4-1 1zM1075.1 942.6c0 1.1.3 1.4.6.6.3-.7.2-1.6-.1-1.9-.3-.4-.6.2-.5 1.3zM994.4 1000.8c-1.4.9-2.7 6.2-1.5 6.2.5 0 1.2-1.2 1.6-2.7.3-1.5 1.2-3.1 1.8-3.5.7-.4.8-.8.2-.8-.5 0-1.5.4-2.1.8zM1038.5 1013.1c-.4 1-1 1.9-1.5 1.9-1.2 0-2.1 2.8-1.1 3.5.5.2 2-1 3.5-2.9 2-2.7 2.3-3.5 1.1-4-.8-.3-1.6.3-2 1.5zM1030.3 1022c-1 1.2-2.8 2.6-4 3.1-1.3.5-2.3 1.5-2.3 2.4 0 1.8 1.6 2 2.4.2.3-.6.3-.2 0 1-.4 1.6-.1 2.3.9 2.3.8 0 1.8-1.2 2.1-2.6.4-1.5 1.7-3.5 2.9-4.5 1.7-1.3 1.9-2 1-2.9-.9-1-1.6-.7-3 1zM1016 1036.5c0 .9.5 1.5 1.1 1.3.6-.2 1.1-.8 1.1-1.3s-.5-1.1-1.1-1.3c-.6-.2-1.1.4-1.1 1.3zM1012.5 1037c-.3.5.1 1 .9 1 .9 0 1.6-.5 1.6-1 0-.6-.4-1-.9-1-.6 0-1.3.4-1.6 1zM1015.7 1040.6c.6 1.6 1.9 1.8 2.7.5.3-.5-.3-1.1-1.3-1.4-1.4-.3-1.8-.1-1.4.9zM1003.5 1053c-.3.5-.1 1 .4 1 .6 0 1.1-.5 1.1-1 0-.6-.2-1-.4-1-.3 0-.8.4-1.1 1zM975 1069c0 1.9.3 2.1 1.2 1.2.9-.9.9-1.5 0-2.4-.9-.9-1.2-.7-1.2 1.2zM1121 767c0 .5.5 1 1 1 .6 0 1-.5 1-1 0-.6-.4-1-1-1-.5 0-1 .4-1 1zM1115 792c0 4.7.4 8 1 8s1-.8 1-1.9c0-1 .3-4.6.6-8 .6-5.2.5-6.1-1-6.1-1.3 0-1.6 1.2-1.6 8zM576.6 745.5c-.3.8-.1 1.5.4 1.5.6 0 1-.7 1-1.5s-.2-1.5-.4-1.5-.6.7-1 1.5zM603 745.5c0 .8.5 1.5 1 1.5.6 0 1-.7 1-1.5s-.4-1.5-1-1.5c-.5 0-1 .7-1 1.5zM851 871.2c0 1.3-.7 3.6-1.5 5.2-1.7 3.1-1.9 4.6-.7 4.6.9 0 4.2-7.4 4.2-9.4 0-.8-.4-1.8-1-2.1-.6-.3-1 .4-1 1.7zM904 914c0 .6 2 3.3 4.5 5.9 5.6 6 16.7 11.6 24.5 12.5 10.2 1.2 10.5 3.4 1 5.8-3.9 1-5.6 2-5.9 3.3-.3 1.7.3 1.8 11 1.1 13.8-.9 18.3-.8 18.7.4.7 2 2.1.9 2.7-2.1 1-4.4-1.1-6-8.6-7.1-3.5-.4-6.7-1.4-7.1-2.1-.6-.9-.8-.9-.8 0 0 1.2-2.4.7-8.5-1.6-1.1-.5-3.6-1.4-5.5-2.1-1.9-.6-5.3-1.9-7.5-2.6-2.2-.8-4.7-2.4-5.7-3.4-.9-1.1-2-2-2.4-2-.4 0-2.2-1.6-4.1-3.5-3.3-3.4-6.3-4.6-6.3-2.5zM581.5 918.9c-2.5 1.8-2.7 2.1-1.1 2.7 2.2.9 9.8-1.6 9.3-3-.6-1.9-5.1-1.7-8.2.3zM609 932.8c0 1.1.5 2.2 1.2 2.4.7.3-.2 1.9-2.4 4.1-3.1 3-4.1 3.5-6 2.8-4-1.5-11.6-2.2-12.2-1.2-1.3 2.1 2.9 4 13.9 6.1 13 2.4 15.7 2.3 9.6-.4-4.9-2.3-5.2-3.9-.8-5.6 1.7-.6 4.6-1.8 6.4-2.7 3.7-1.8 5.3-1.1 5.3 2.2 0 3.5 1.8 4 3.1.8 1.3-3.5 2.5-4.3 6.7-4.3 1.7 0 3.2-.5 3.2-1 0-.6-.8-1-1.7-1-.9 0-2.4-.7-3.2-1.5-1.1-.9-5.2-1.6-12.4-2.1-10.4-.7-10.7-.6-10.7 1.4zM979.3 932.7c-.7.3-1.3 1-1.3 1.7 0 1.5 4.7 3.9 6 3.1 2.1-1.3-2.2-5.6-4.7-4.8zM965.6 934.8c-.9 1.5 1 3.2 4.2 3.8 3.6.7 4.1-.4 1.4-2.9-2-1.8-4.8-2.2-5.6-.9zM794.3 944c0 2.5.2 3.5.4 2.2.2-1.2.2-3.2 0-4.5-.2-1.2-.4-.2-.4 2.3zM978.5 947.5c-15.5 4.6-22.7 7.3-20 7.6 2.6.3 8.3-.3 11.1-1.2 1.8-.5 5.4-1.4 8-1.9 9.4-1.7 11.9-2.6 11.9-4 0-2.1-4.9-2.2-11-.5zM600.1 960.4c.9.8 9.8 1.3 9.3.5-.3-.5-2.6-.9-5.1-.9-2.6 0-4.4.2-4.2.4zM756.5 1025.1c-14.5 3.4-18.6 4.5-23.6 6.4-3.1 1.2-8 2.5-11 2.9-3 .4-7.2 1.7-9.4 2.9-3.6 2-4 2.7-4.3 6.5-.2 3.2.4 5.6 2.9 10.1 3.1 5.9 6.9 10.5 6.9 8.3 0-.6-.9-3.2-2-5.8-2.6-6-3.1-14.3-1-15.4.8-.4 4.2-1.5 7.5-2.4 3.3-1 6.9-2.1 8-2.6 6-2.6 26.9-6.8 39.5-8 11.2-1.1 23.3-.1 25.3 1.9.6.6.8 1.1.4 1.1-1.4 0 3.3 7.8 7.6 12.5l4.3 4.9 5.7-3.3c3.2-1.8 6.2-4.1 6.7-5.2 1.4-2.6 3.9-2.3 7.6.9 4.2 3.7 5 6.5 2.8 11-.9 2-2 3.9-2.3 4.2-.3.3-1.3 1.8-2.1 3.3-2 4-15.1 17.7-16.8 17.7-.9 0-1.2.3-.9.7 1.2 1.2 9.9-3.9 14.1-8.2 4.2-4.4 4.4-4.7 8.8-10.5 3.2-4.3 7-14.4 6.2-16.5-.8-2-15.2-9.8-22.9-12.4-15.8-5.2-20.4-5.9-37.5-5.9-9.1 0-18.3.4-20.5.9zm54 6.4c6.9 1.9 10.5 3.3 10.5 4.3 0 .4-1.2 1.3-2.7 2-1.6.6-4.3 2.1-6 3.3-1.8 1.1-3.7 1.7-4.4 1.4-.6-.4-2.7-3.2-4.6-6.2-2.8-4.4-3.2-5.7-2.2-6.4.8-.5 2.1-.6 2.9-.3.8.3 3.8 1.2 6.5 1.9zM802 1165c0 1.3 1.1 1.3 3 0 1.2-.8 1.1-1-.7-1-1.3 0-2.3.4-2.3 1zM549.1 904.5c0 3.8.2 4.6 1 3.3.6-1.1.6-2.9 0-5-.9-3.2-.9-3.1-1 1.7zM542.5 911c-.3.5-.1 1 .4 1 .6 0 1.1-.5 1.1-1 0-.6-.2-1-.4-1-.3 0-.8.4-1.1 1zM546 911c0 .5.5 1 1 1 .6 0 1-.5 1-1 0-.6-.4-1-1-1-.5 0-1 .4-1 1zM447.2 956.5c0 1.6.2 2.2.5 1.2.2-.9.2-2.3 0-3-.3-.6-.5.1-.5 1.8zM456.1 965.6c0 1.1.3 1.4.6.6.3-.7.2-1.6-.1-1.9-.3-.4-.6.2-.5 1.3zM435 977c0 1.3 1.1 1.3 3 0 1.2-.8 1.1-1-.7-1-1.3 0-2.3.4-2.3 1zM431 980.4c0 2 .4 2.3 2.3 1.8 1.8-.5 1.9-.7.4-1-1.4-.3-1.6-.7-.6-1.8.9-1.1.8-1.4-.5-1.4-1 0-1.6.9-1.6 2.4zM424 985.1c0 .5.5.7 1 .4.6-.3 1-.8 1-1.1 0-.2-.4-.4-1-.4-.5 0-1 .5-1 1.1zM615 1126.9c0 1 1.9 2.5 2.5 2 .1-.2-.3-1-1.1-1.7s-1.4-.8-1.4-.3zM566 1174.2c0 .4.7.8 1.5.8s1.5-.4 1.5-.8c0-.5-.7-.9-1.5-.9s-1.5.4-1.5.9zM944.1 1175.9c-.7.5-1.2 1.3-1 1.8.2.5 1.2.1 2.2-.9 1.8-1.9 1.2-2.4-1.2-.9zM937 1177.6c0 .8.5 1.2 1 .9.6-.3 1-1 1-1.6 0-.5-.4-.9-1-.9-.5 0-1 .7-1 1.6zM765 1246.1c-3.4.6-3.3.6 1.3.8 4.6.1 5.9-.3 3.5-1.1-.7-.2-2.9-.1-4.8.3zM743.5 1249c-.8 1.3.5 1.3 2.5 0 1.3-.8 1.3-1-.2-1-.9 0-2 .4-2.3 1zM735.5 1251.1c-.4.6-.5 1.3-.2 1.6.8.7 4.7-.7 4.7-1.8 0-1.3-3.7-1.1-4.5.2zM370.6 181.7c1 4 1.4 4.1 1.4.5 0-1.8-.5-3.2-1-3.2-.6 0-.8 1.1-.4 2.7zM361.6 190.5c-.3.8-.1 1.5.4 1.5.6 0 1-.7 1-1.5s-.2-1.5-.4-1.5-.6.7-1 1.5zM428.4 325.2c.9 6.2 9 23.4 15.5 32.8 3.1 4.4 16 19.1 18.3 20.8 1 .7 1.8 2 1.8 2.8 0 .8.6 1.4 1.3 1.4.8 0 2.1.8 3 1.8 1.5 1.7 1.4 1.8-2.6 2-8.5.3-41.6-1.7-43.5-2.7-1.5-.8-2.3-.7-3.1.3-.8 1-.5 1.8 1.2 3.3 3.1 2.8 7.4 5.6 13.2 8.8 2.8 1.5 5.5 3.3 6.1 4 1.7 2.2 19.4 5.5 19.4 3.7 0-.5-.7-1.2-1.5-1.6-2.5-.9-1.7-3.3 1.4-3.9 1.6-.4 3.8-1.6 4.9-2.7 1.8-2 10.9-5 14.2-4.8 6.1.4 6.9-2.3 1.2-4-3.8-1.2-14.2-10.8-14.2-13.1 0-.6-.4-1.1-1-1.1-.5 0-1-.9-1-2s-.6-3.5-1.4-5.3c-1.1-2.8-1.1-3.4.1-4.6 1.5-1.3-.1-3.1-15.4-18.6-1.3-1.2-2.3-2.9-2.3-3.6 0-.9-.5-.7-1.2.5-.8 1.5-.7 2.2.4 3 .8.6 1.3 1.7 1.1 2.3-.3.7.2 1.3 1.1 1.3.9 0 1.6.7 1.6 1.5 0 4.5-5.4-2.1-11.7-14.5-2.9-5.6-5.3-10.8-5.3-11.6 0-.8-.5-1.4-1.1-1.4-.8 0-.9 1.6-.5 5.2zm20.9 28.4c-.7 1.9-1 1.8-1.6-.5-.3-1.3-.1-1.8.9-1.4.7.2 1 1.1.7 1.9zm7.7 7.4c0 .5-.2 1-.4 1-.3 0-.8-.5-1.1-1-.3-.6-.1-1 .4-1 .6 0 1.1.4 1.1 1zM243.4 339.2c-5 5.4-10.9 13.8-14.4 20.8-1.7 3.6-3.6 7.2-4.1 8-3.1 5.2-12.3 25.1-13.6 29.3-1.4 4.7-1.4 5 1 8.6 4.7 7.1 18.8 19.8 43.7 39.5 7.4 5.9 14.4 11.5 15.5 12.5 1.1.9 3.6 2.8 5.5 4.2 1.9 1.3 5.1 3.7 7.1 5.4 3.8 3.1 26.6 20.2 32.6 24.4 2.6 1.9 3.9 2.2 5.1 1.5 1.6-1 5.3-7.5 7.9-14 4-10 4.3-10.6 5.7-10.1 1.7.7 6.6-4.3 6.6-6.6 0-1.8-1.3-3.4-11.9-15.1-3.5-3.9-8.8-10-11.6-13.6-6.1-7.6-26.5-37.5-26.5-38.9 0-.5-.4-1.1-.8-1.3-.4-.2-4.4-5.7-8.7-12.3-6.7-10.3-16.1-23.4-29-40.9-3.9-5.2-6.2-5.6-10.1-1.4zm9.4 6.1c1.8 2.3 6.5 8.8 10.5 14.4s8.6 12.1 10.2 14.4c1.7 2.3 3.8 5.6 4.7 7.4.9 1.7 2.3 3.7 3.2 4.4.9.8 1.6 1.9 1.6 2.6 0 .7 1.1 2.4 2.5 3.9s2.5 3.1 2.5 3.5c0 .4 1.1 2 2.5 3.5s2.5 3.3 2.5 4c0 .8 1.1 2.4 2.5 3.7 1.3 1.3 2.5 2.9 2.5 3.5 0 .6 1.1 2.3 2.5 3.8s2.5 3.3 2.5 3.9c0 .7 1.6 2.7 3.5 4.6 1.9 1.8 3.5 3.8 3.5 4.4 0 .6 1.8 3.2 4 5.8 2.2 2.6 4 5 4 5.4 0 .4 2 2.7 4.4 5.3 2.4 2.6 5.9 6.5 7.6 8.7 1.7 2.2 3.7 4.3 4.3 4.7.9.6.9 1.2-.1 2.5-1.4 2.1-2.9 5.2-5.1 11.3-.9 2.5-2.4 5.6-3.3 7-.9 1.4-1.9 4.1-2.3 6-1.3 6.1-4.3 6.6-9.7 1.5-2-1.9-4.1-3.5-4.5-3.5-.5 0-3.4-2-6.4-4.5-3-2.4-6.9-5.7-8.8-7.2-1.9-1.5-4.8-3.6-6.5-4.7-1.7-1-4.2-2.9-5.5-4.2-1.3-1.3-2.9-2.4-3.5-2.4-.7 0-2.7-1.6-4.6-3.5-1.9-1.9-3.8-3.5-4.3-3.5-.4 0-1.4-.6-2.2-1.3-1.8-1.7-4.3-3.7-12.1-9.8-3.8-2.9-7.6-6-8.4-6.9-.8-.9-4.4-4.1-8-7.1-3.6-3-7.1-6-7.8-6.7-.8-.6-3.3-2.5-5.7-4.2-3.9-2.7-11.5-12.5-11.5-14.8 0-.5.7-2.3 1.5-3.8.8-1.6 1.5-3.7 1.5-4.6 0-.9.4-1.9.9-2.3.5-.3 1.5-2.2 2.1-4.3 1.7-5.1 6.6-15 9.6-19.1 1.3-1.9 2.4-4.2 2.4-5.2 0-1.1.4-1.9.8-1.9s1.8-1.9 3-4.3c5.8-11 10.1-16.1 12.6-15 .6.2 2.6 2.3 4.4 4.6zM215.3 486.7c-1.2 1-2.9 3.8-3.7 6.3-3.2 9.5-4.7 13.1-7.1 18.1-3.4 7.1-3.2 7.3 13.5 16.9 5.8 3.3 11.2 6.5 12 7 5.3 3.3 27.7 12.5 45.7 18.7 5.2 1.7 5.2 1.7 7.6-.6 1.4-1.2 2.8-3.7 3.2-5.4.4-1.8.9-3.4 1-3.7.1-.3.5-2.3 1-4.5 1-5.4 2.9-8.9 7.1-13.3 1.8-2 3.4-4.1 3.4-4.8 0-1.6-9.2-6.3-24-12.2-6.9-2.8-16.5-6.9-21.3-9.1-4.9-2.3-9.2-4.1-9.7-4.1s-2.5-.9-4.5-2.1c-3-1.8-15.3-6.9-20.6-8.5-.8-.3-2.5.3-3.6 1.3zm8.2 4.3c3.2 1.1 7.4 2.9 9.3 4.1 1.9 1.1 6.2 2.9 9.6 4.1 3.4 1.1 8.1 3.2 10.6 4.5 2.4 1.4 6.7 3.4 9.5 4.4 2.7 1.1 6.1 2.5 7.5 3.1 2.4 1 5.6 2.4 11 4.6 1.4.6 4.9 1.8 7.8 2.7 2.8.9 5.2 2.2 5.2 2.9 0 .7-1.2 2.3-2.6 3.7-3.8 3.5-5.5 7.4-7.3 16.4-1.1 5.7-2 8-3.1 8-.8 0-2 .4-2.7.8-1.2.7-3.1.1-11.8-3.8-2.7-1.2-8.8-3.7-13.5-5.5-10.6-4.1-43.2-20.8-46.2-23.8-.9-.9-.8-1.6.4-2.9.9-1 2.4-4.5 3.4-7.8 1.5-5.3 6.3-17.5 6.9-17.5.1 0 2.8.9 6 2zM267.5 813c-5.2.7-5.9.9-13.5 4.3-5.2 2.3-12.4 7-15.9 10.4-3.6 3.5-1.9 2.8 5.1-2.1 13.2-9.2 18.8-10.9 32.7-10.4 10.6.4 14.3 1.5 23.8 7.2 7.2 4.2 16.5 14.8 23.7 27.1 6.2 10.5 6.1 10.4 9.1 17.7 10 23.8 14.4 56.8 11.5 84.6-3.6 33.4-11.7 58.5-25.8 79.3-8.1 11.9-26.3 27.7-34 29.5-1.5.4-3.1 1-3.7 1.4-1.2.9-9.1 2.7-15.5 3.6-17.8 2.4-40.9-11.1-56.3-32.8-9.6-13.4-20.3-38.1-22.2-50.8-.3-2.5-1-5.6-1.5-7-.6-1.4-1.4-6.1-1.9-10.5l-1-8 .4 9c.6 12 1.2 15.5 4.1 25.5 10 33.6 29.2 60.8 50.3 71.4 6.5 3.3 19.2 6.6 25.5 6.6 6.9 0 18.9-3.1 26.2-6.8 40.9-20.8 65.7-85.9 58-151.8-5-42-24.8-79.1-49.6-92.6-7.8-4.3-19.2-6.1-29.5-4.8z"/><path d="M230.6 835c-3.5 3.9-4.4 5.5-2.8 4.8 1.5-.6 8.4-8.8 7.4-8.8-.5 0-2.6 1.8-4.6 4zM223.6 843.6c-.9 2.4-.2 2.6 1.2.4.7-1.1.8-2 .3-2s-1.2.7-1.5 1.6zM266 844.9c-16.2 5.5-33.6 13.9-38.7 18.7-3.7 3.5-4.1 6-1.9 13.9 2.4 9.2 5.7 12.3 8.9 8.4 1.3-1.7 1.7-3.6 1.5-7.3l-.3-5.1 7-3.7c9.5-5.1 30.3-13.3 31.2-12.4.4.4-1.6 7.6-4.4 15.9-6.7 19.6-10.4 35.9-8.3 37.2 2.4 1.5 9.5-7.9 14-18.5 5.7-13.5 13-36.5 13-41 0-9.4-6.6-11.3-22-6.1zM245 934.4c-1.1 1.5-1 2.1.6 4.4 3 4.1 20.4 12.1 20.4 9.3 0-.6-2.8-4-6.2-7.6-4.8-5-7.1-6.7-9.8-7.1-2.6-.4-4-.1-5 1zM305.5 936.8c-.6.4-3.7 4.3-7 8.7-5.3 7.1-11.6 13.9-38.7 41.9-4.3 4.4-7.8 8.8-7.8 9.7 0 .9.9 2.4 2 3.4 9.7 8.8 37.2-19.3 49-50 1.7-4.6 4.2-14.6 3.6-14.5-.1 0-.6.4-1.1.8zM1324.5 1061.2c-7.1.4-15.1 1.5-19.5 2.7-4.1 1.2-8.4 2.3-9.5 2.6-1.1.2-2.9.9-4 1.4-1.1.5-2.9 1.2-4 1.6-1.3.5-1.6.9-.7 1.2.7.3 2.7-.2 4.5-1 7.2-3.4 22.6-5.7 37.8-5.7 19.6 0 30.9 2.5 46.4 10.2 33 16.5 50 52.3 51 107.3.8 42.1-9 81.9-28.2 115.3-6.6 11.5-20.8 27.7-31.1 35.3-7.7 5.8-22.5 12.9-29.8 14.3-12.8 2.5-17.6 2.8-26 1.7-23.6-3.1-42.7-13.1-61.6-32.3-14.9-15.1-26.6-34.1-34.5-55.8-11.3-31.3-11.9-72.1-1.4-108 2.9-10 7.2-22.4 8.2-23.4.5-.6.9-1.9.9-3-.1-2.1-.1-2.1-1.2-.1-.6 1.1-1.4 2.2-1.7 2.5-1.6 1.4-7.6 14.9-10.2 23.2-11.1 34.7-11 76.6.3 108.7 17 48.3 55.2 85.2 95.3 92.2 9.8 1.7 28.1.6 37-2.1 43.2-13.6 74.3-58.5 86.1-124.7 2.3-13 2.7-17.6 2.8-37.8 0-24.6-1-33.6-5.8-52-6.7-25.1-20.1-46-37.2-57.9-3.6-2.5-6.7-4.6-6.9-4.6-.3 0-3.6-1.6-7.5-3.5-8.1-3.9-21.4-7.5-31-8.4-3.6-.3-11.9-.3-18.5.1zM1280.6 1071.9c-1.1.4-1.5 1-.9 1.4.5.3 1.9 0 2.9-.8 2-1.5 1.1-1.8-2-.6z"/><path d="M1305.5 1122.5c-20.9 2.7-22.5 3.9-22.5 15.4 0 6.9.3 8.4 2.3 10.7 2 2.2 2.7 2.5 4.4 1.6 2.1-1.2 4-5 4.5-9.2.3-2.2 1-2.6 6.3-3.7 3.3-.7 14.5-1.5 24.9-1.9 16.1-.6 18.8-.5 18.1.7-1.5 2.5-5.9 8.3-8.7 11.5-8.3 9.3-21.8 29.9-21.8 33.4 0 1.8 4 1.1 8.5-1.5 6.3-3.7 15.6-13.2 27.4-28 12.5-15.6 14-18.5 11.7-23.1-2.9-6.1-5.8-6.9-26.6-7.1-10.8-.1-22.7.4-28.5 1.2zM1288 1200.1c-.9 1.6-.8 2.6.4 4.4 2.7 4.2 17.5 15.1 19.5 14.3 2.2-.8-7.6-16-12.4-19.2-3.3-2.2-6.2-2-7.5.5zM1351 1224.3c-10.1 6.5-32.9 17.6-61 29.6-10.8 4.6-11 4.7-11 7.7 0 3.4 5.2 6.4 11.1 6.4 5.5 0 18.1-4 25.9-8.2 14.2-7.7 26.1-17.4 35.4-28.8 4.4-5.4 7.7-11.1 6.4-11-.2 0-3.2 1.9-6.8 4.3zM1275 1282.5c-3.7 4.4 6.6 28.6 13.1 30.9 4.3 1.5 9.9-.2 13.9-4.2 4.3-4.4 11.5-14.7 12.5-18 .9-3-1.6-6.8-5-7.6-2.8-.7-4.4 0-12.4 5.2l-5.3 3.5-5-5.6c-5.2-6-9.1-7.4-11.8-4.2zM560 1329.9c0 .5.7 1.1 1.5 1.5.8.3 1.5.1 1.5-.3 0-.5-.7-1.1-1.5-1.5-.8-.3-1.5-.1-1.5.3zM565 1332.5c0 2.2 40.8 18.7 69.9 28.4 7.2 2.3 6.6.3-.6-2.3-2.6-1-6.1-2.4-7.8-3.1-4.9-2.1-17.8-7.2-25.5-10-11-4-19.4-7.2-26.8-10.2-8.5-3.4-9.2-3.6-9.2-2.8zM960 1368.6c0 21.6.1 22.7 1.7 21.1 3.2-3.2 2.8-42.4-.4-43.5-1-.3-1.3 4.6-1.3 22.4zM642 1363.1c0 .5.9.9 2 .9s2-.2 2-.4-.9-.6-2-.9c-1.1-.3-2-.1-2 .4zM330.5 1393.6c-3.4 2.8-4.8 3.6-14.2 8.2-9.1 4.5-11.9 5.7-17.8 7.5-2.7.8-7.5 2.5-10.5 3.7-3 1.3-7.1 2.9-9 3.6-25.1 9.3-62.9 26.5-72.8 33.2-1.5 1-6 4-10.1 6.7-4 2.7-7.8 5.3-8.5 5.9-10 9.5-21 17.1-14.9 10.3 1.1-1.2 2.9-3.5 3.9-5.1 1.6-2.5 1.6-2.8.2-2-.9.5-3.4 2.5-5.6 4.5-2.1 2-5.4 4.5-7.3 5.4-3.8 2-9.2 6.1-15.4 11.6-12 10.7-18.5 17-23 21.9-2.8 3-6.9 7.5-9.3 10l-4.3 4.5 3.1.3c2.8.3 4.3-.8 14.4-11.2 6.2-6.4 11.8-11.6 12.4-11.6.7 0 1.2-.7 1.2-1.5 0-.9.8-1.9 1.8-2.2.9-.4 2.5-1.6 3.5-2.6 3.1-3.6 2.8-1.2-.9 6.1-2.9 5.9-3.4 7.5-2.4 8.7.7.8 1.6 1.5 2.1 1.5.4 0 3.1-2.8 5.9-6.3 2.8-3.4 7.5-8.9 10.3-12.1 2.9-3.3 5.8-6.7 6.4-7.7 1.9-2.6 20-17.9 21.2-17.9.6 0 1.1-.4 1.1-.8 0-1.5 8.6-5.2 11.9-5.2 1.7 0 3.9-.4 4.9-1 1.6-.9 13.5-4.5 27.7-8.5 3.3-1 8-2.3 10.5-3.1 6-1.8 9.5-2.1 9.6-.9.1.9-3.2 8.7-6.2 14.7-.8 1.4-1.4 3.3-1.4 4.2 0 .9-.4 2.5-1 3.6-.5 1.1-1.4 2.8-1.9 3.9-.5 1-1.3 3.6-1.7 5.7-.4 2.2-1.2 5-1.9 6.4-.6 1.4-1 3.3-.8 4.2.3.9-.1 2.6-.7 3.7-.8 1.6-.8 2.1.1 2.1.8 0 1 1.4.6 4.5-.5 3.5-.3 4.7.8 5.1.8.4 1.5 1.2 1.5 2 0 2.3 3 1.6 4.2-1.1.6-1.4 1.5-2.5 1.9-2.5.4 0 1.1-.9 1.4-2 .3-1.1 1.2-2 2-2s1.7-.9 2-2c.3-1.1 1.1-2 1.6-2 .6 0 2.4-1.4 4.1-3 1.6-1.7 3.3-3 3.8-3 1.2 0 2 3.9 2 10.3 0 4.3-.4 5.9-1.5 6.3-1 .4-1.3 1.3-1 2.4.5 1.6-.6 8.1-2.1 13.2-.5 1.7.8 1.8 17.9 1.8h18.4l1.6-3.8c.8-2 3.4-8.2 5.6-13.7 2.3-5.5 4.6-10.9 5.1-12 1.8-3.6 7-19.3 7-20.9 0-.9.5-1.6 1-1.6.6 0 1-.6 1-1.3 0-1.7 4.4-16.4 7.1-23.7 1.9-5.1 3.2-9.9 4.5-17.5.3-1.7 1.2-4.4 1.9-6 .7-1.7 1.3-4.9 1.3-7.3.1-2.4.5-4.9 1.1-5.6 1.7-2 2.6-16.3 1.1-18.1-1.7-2.1-3-1.8-6.5 1.1zM957.4 1396.3c-.8 3.4-.1 10.2 1.1 10.2.6 0 1.1-2.8 1.3-6.3.3-6.2-1.2-8.6-2.4-3.9zM843.5 1413c-1 1.1-2.7 2.2-3.8 2.6-3.5 1.1-21.1 12.8-19.9 13.2.7.2 3.2-1 5.7-2.7 2.5-1.7 4.9-3.1 5.2-3.1 1.2 0 16.3-10.3 16.3-11.1 0-1.5-1.6-1-3.5 1.1zM633.5 1425c-.3.5-.1 1 .4 1 .6 0 1.1-.5 1.1-1 0-.6-.2-1-.4-1-.3 0-.8.4-1.1 1zM815 1430c0 .5.5 1 1.1 1 .5 0 .7-.5.4-1-.3-.6-.8-1-1.1-1-.2 0-.4.4-.4 1zM663 1432.5c.7.9 1.5 1.3 1.7 1.1.7-.7-.7-2.6-1.9-2.6-.6 0-.6.6.2 1.5zM811.6 1432.6c-1.1.8-1.6 1.4-1 1.4 1.3 0 3.9-1.8 3.4-2.4-.3-.2-1.4.2-2.4 1zM639.5 1503c-.3.5.3 1 1.5 1s1.8-.5 1.5-1c-.3-.6-1-1-1.5-1s-1.2.4-1.5 1z"/><path d="M239.1 1507.8c-.1 4.3 2.1 6.8 4 4.6 1.1-1.3 1-1.8-.5-2.6-.9-.5-2.1-1.9-2.6-3.1-.8-1.9-.9-1.8-.9 1.1zM236 1514.3c0 3 .4 4.6 1 4.2 1.3-.8 1.3-5.5 0-7.5-.7-1.1-1-.2-1 3.3zM307.9 1518.7c-4.5 5.4-4.5 5.3.5 5.3 4.1 0 4.6-.2 4.6-2.3 0-2.2-1.6-4.7-3-4.7-.4 0-1.3.8-2.1 1.7zM233.5 1522c-.3.5-.1 1 .4 1 .6 0 1.1-.5 1.1-1 0-.6-.2-1-.4-1-.3 0-.8.4-1.1 1z"/></svg>